<svg width="24" height="24" viewBox="0 0 24 24" fill="none" xmlns="http://www.w3.org/2000/svg">
<path d="M17.907 9.74981H12.5633V11.7187C12.5633 13.1145 11.4277 14.2502 10.032 14.2502C8.63633 14.2502 7.50079 13.1145 7.50079 11.7187V7.44337L5.21915 8.81457C4.54064 9.2189 4.1258 9.95373 4.1258 10.7413V12.4043L1.3133 14.0287C0.775411 14.3381 0.589083 15.0272 0.901973 15.5651L3.71447 20.4382C4.02384 20.9761 4.7129 21.159 5.25079 20.8496L8.88594 18.7506H13.6883C14.9293 18.7506 15.9383 17.7415 15.9383 16.5004H16.5008C17.123 16.5004 17.6258 15.9976 17.6258 15.3753V13.1251H17.907C18.3746 13.1251 18.7508 12.7489 18.7508 12.2813V10.5936C18.7508 10.126 18.3746 9.74981 17.907 9.74981ZM23.0996 8.43485L20.2871 3.56179C19.9777 3.02385 19.2887 2.84102 18.7508 3.15042L15.1156 5.24943H11.5227C11.1008 5.24943 10.6895 5.36897 10.3309 5.59047L9.15313 6.3253C8.82266 6.52923 8.62579 6.89137 8.62579 7.27812V11.7187C8.62579 12.4957 9.25508 13.1251 10.032 13.1251C10.809 13.1251 11.4383 12.4957 11.4383 11.7187V8.62471H17.907C18.9933 8.62471 19.8758 9.50721 19.8758 10.5936V11.5957L22.6883 9.97131C23.2262 9.6584 23.409 8.97279 23.0996 8.43485Z" fill="#BDBDBD"/>
</svg>
