<svg width="747" height="392" viewBox="0 0 747 392" fill="none" xmlns="http://www.w3.org/2000/svg">
<rect x="0.5" y="60.5" width="746" height="331" rx="39.5" stroke="#F2F2F2"/>
<path d="M46.843 269.264C48.443 269.264 49.6163 269.568 50.363 270.176C51.1203 270.773 51.499 271.595 51.499 272.64C51.499 273.301 51.339 273.899 51.019 274.432C50.7097 274.955 50.235 275.371 49.595 275.68C48.9657 275.979 48.187 276.128 47.259 276.128C46.4697 276.128 45.707 276.011 44.971 275.776C44.235 275.531 43.627 275.195 43.147 274.768L43.883 273.504C44.267 273.867 44.7577 274.16 45.355 274.384C45.9523 274.597 46.5817 274.704 47.243 274.704C48.0857 274.704 48.7363 274.528 49.195 274.176C49.6643 273.813 49.899 273.323 49.899 272.704C49.899 272.032 49.643 271.525 49.131 271.184C48.619 270.832 47.7443 270.656 46.507 270.656H43.963L44.555 264.8H50.875V266.192H45.899L45.595 269.264H46.843ZM57.4065 276.128C56.5212 276.128 55.7318 275.904 55.0385 275.456C54.3558 274.997 53.8172 274.336 53.4225 273.472C53.0278 272.608 52.8305 271.584 52.8305 270.4C52.8305 269.216 53.0278 268.192 53.4225 267.328C53.8172 266.464 54.3558 265.808 55.0385 265.36C55.7318 264.901 56.5212 264.672 57.4065 264.672C58.2812 264.672 59.0598 264.901 59.7425 265.36C60.4358 265.808 60.9798 266.464 61.3745 267.328C61.7692 268.192 61.9665 269.216 61.9665 270.4C61.9665 271.584 61.7692 272.608 61.3745 273.472C60.9798 274.336 60.4358 274.997 59.7425 275.456C59.0598 275.904 58.2812 276.128 57.4065 276.128ZM57.4065 274.704C58.3025 274.704 59.0172 274.336 59.5505 273.6C60.0945 272.864 60.3665 271.797 60.3665 270.4C60.3665 269.003 60.0945 267.936 59.5505 267.2C59.0172 266.464 58.3025 266.096 57.4065 266.096C56.4998 266.096 55.7745 266.464 55.2305 267.2C54.6972 267.936 54.4305 269.003 54.4305 270.4C54.4305 271.797 54.6972 272.864 55.2305 273.6C55.7745 274.336 56.4998 274.704 57.4065 274.704ZM64.3869 273.904C64.6855 273.904 64.9309 274.011 65.1229 274.224C65.3255 274.427 65.4269 274.683 65.4269 274.992C65.4269 275.152 65.4055 275.307 65.3629 275.456C65.3309 275.605 65.2615 275.835 65.1549 276.144L64.4029 278.368H63.3949L63.9869 275.984C63.7842 275.909 63.6189 275.787 63.4909 275.616C63.3735 275.435 63.3149 275.227 63.3149 274.992C63.3149 274.672 63.4162 274.411 63.6189 274.208C63.8215 274.005 64.0775 273.904 64.3869 273.904ZM71.3284 276.128C70.443 276.128 69.6537 275.904 68.9604 275.456C68.2777 274.997 67.739 274.336 67.3444 273.472C66.9497 272.608 66.7524 271.584 66.7524 270.4C66.7524 269.216 66.9497 268.192 67.3444 267.328C67.739 266.464 68.2777 265.808 68.9604 265.36C69.6537 264.901 70.443 264.672 71.3284 264.672C72.203 264.672 72.9817 264.901 73.6644 265.36C74.3577 265.808 74.9017 266.464 75.2964 267.328C75.691 268.192 75.8884 269.216 75.8884 270.4C75.8884 271.584 75.691 272.608 75.2964 273.472C74.9017 274.336 74.3577 274.997 73.6644 275.456C72.9817 275.904 72.203 276.128 71.3284 276.128ZM71.3284 274.704C72.2244 274.704 72.939 274.336 73.4724 273.6C74.0164 272.864 74.2884 271.797 74.2884 270.4C74.2884 269.003 74.0164 267.936 73.4724 267.2C72.939 266.464 72.2244 266.096 71.3284 266.096C70.4217 266.096 69.6964 266.464 69.1524 267.2C68.619 267.936 68.3524 269.003 68.3524 270.4C68.3524 271.797 68.619 272.864 69.1524 273.6C69.6964 274.336 70.4217 274.704 71.3284 274.704ZM82.0003 276.128C81.1149 276.128 80.3256 275.904 79.6323 275.456C78.9496 274.997 78.4109 274.336 78.0163 273.472C77.6216 272.608 77.4243 271.584 77.4243 270.4C77.4243 269.216 77.6216 268.192 78.0163 267.328C78.4109 266.464 78.9496 265.808 79.6323 265.36C80.3256 264.901 81.1149 264.672 82.0003 264.672C82.8749 264.672 83.6536 264.901 84.3363 265.36C85.0296 265.808 85.5736 266.464 85.9683 267.328C86.3629 268.192 86.5603 269.216 86.5603 270.4C86.5603 271.584 86.3629 272.608 85.9683 273.472C85.5736 274.336 85.0296 274.997 84.3363 275.456C83.6536 275.904 82.8749 276.128 82.0003 276.128ZM82.0003 274.704C82.8963 274.704 83.6109 274.336 84.1443 273.6C84.6883 272.864 84.9603 271.797 84.9603 270.4C84.9603 269.003 84.6883 267.936 84.1443 267.2C83.6109 266.464 82.8963 266.096 82.0003 266.096C81.0936 266.096 80.3683 266.464 79.8243 267.2C79.2909 267.936 79.0243 269.003 79.0243 270.4C79.0243 271.797 79.2909 272.864 79.8243 273.6C80.3683 274.336 81.0936 274.704 82.0003 274.704ZM92.6721 276.128C91.7868 276.128 90.9975 275.904 90.3041 275.456C89.6215 274.997 89.0828 274.336 88.6881 273.472C88.2935 272.608 88.0961 271.584 88.0961 270.4C88.0961 269.216 88.2935 268.192 88.6881 267.328C89.0828 266.464 89.6215 265.808 90.3041 265.36C90.9975 264.901 91.7868 264.672 92.6721 264.672C93.5468 264.672 94.3255 264.901 95.0081 265.36C95.7015 265.808 96.2455 266.464 96.6401 267.328C97.0348 268.192 97.2321 269.216 97.2321 270.4C97.2321 271.584 97.0348 272.608 96.6401 273.472C96.2455 274.336 95.7015 274.997 95.0081 275.456C94.3255 275.904 93.5468 276.128 92.6721 276.128ZM92.6721 274.704C93.5681 274.704 94.2828 274.336 94.8161 273.6C95.3601 272.864 95.6321 271.797 95.6321 270.4C95.6321 269.003 95.3601 267.936 94.8161 267.2C94.2828 266.464 93.5681 266.096 92.6721 266.096C91.7655 266.096 91.0401 266.464 90.4961 267.2C89.9628 267.936 89.6961 269.003 89.6961 270.4C89.6961 271.797 89.9628 272.864 90.4961 273.6C91.0401 274.336 91.7655 274.704 92.6721 274.704Z" fill="#969696"/>
<path d="M92.6721 328.128C91.7868 328.128 90.9975 327.904 90.3041 327.456C89.6215 326.997 89.0828 326.336 88.6881 325.472C88.2935 324.608 88.0961 323.584 88.0961 322.4C88.0961 321.216 88.2935 320.192 88.6881 319.328C89.0828 318.464 89.6215 317.808 90.3041 317.36C90.9975 316.901 91.7868 316.672 92.6721 316.672C93.5468 316.672 94.3255 316.901 95.0081 317.36C95.7015 317.808 96.2455 318.464 96.6401 319.328C97.0348 320.192 97.2321 321.216 97.2321 322.4C97.2321 323.584 97.0348 324.608 96.6401 325.472C96.2455 326.336 95.7015 326.997 95.0081 327.456C94.3255 327.904 93.5468 328.128 92.6721 328.128ZM92.6721 326.704C93.5681 326.704 94.2828 326.336 94.8161 325.6C95.3601 324.864 95.6321 323.797 95.6321 322.4C95.6321 321.003 95.3601 319.936 94.8161 319.2C94.2828 318.464 93.5681 318.096 92.6721 318.096C91.7655 318.096 91.0401 318.464 90.4961 319.2C89.9628 319.936 89.6961 321.003 89.6961 322.4C89.6961 323.797 89.9628 324.864 90.4961 325.6C91.0401 326.336 91.7655 326.704 92.6721 326.704Z" fill="#969696"/>
<path d="M153.064 352L153.048 343.84L149 350.64H148.264L144.216 343.888V352H142.68V340.8H143.992L148.664 348.672L153.272 340.8H154.584L154.6 352H153.064ZM160.825 343.44C161.999 343.44 162.895 343.728 163.513 344.304C164.143 344.88 164.457 345.739 164.457 346.88V352H163.001V350.88C162.745 351.275 162.377 351.579 161.897 351.792C161.428 351.995 160.868 352.096 160.217 352.096C159.268 352.096 158.505 351.867 157.929 351.408C157.364 350.949 157.081 350.347 157.081 349.6C157.081 348.853 157.353 348.256 157.897 347.808C158.441 347.349 159.305 347.12 160.489 347.12H162.921V346.816C162.921 346.155 162.729 345.648 162.345 345.296C161.961 344.944 161.396 344.768 160.649 344.768C160.148 344.768 159.657 344.853 159.177 345.024C158.697 345.184 158.292 345.403 157.961 345.68L157.321 344.528C157.759 344.176 158.281 343.909 158.889 343.728C159.497 343.536 160.143 343.44 160.825 343.44ZM160.473 350.912C161.06 350.912 161.567 350.784 161.993 350.528C162.42 350.261 162.729 349.888 162.921 349.408V348.224H160.553C159.252 348.224 158.601 348.661 158.601 349.536C158.601 349.963 158.767 350.299 159.097 350.544C159.428 350.789 159.887 350.912 160.473 350.912ZM168.772 344.944C169.038 344.453 169.433 344.08 169.956 343.824C170.478 343.568 171.113 343.44 171.86 343.44V344.928C171.774 344.917 171.657 344.912 171.508 344.912C170.676 344.912 170.02 345.163 169.54 345.664C169.07 346.155 168.836 346.859 168.836 347.776V352H167.3V343.52H168.772V344.944ZM180.943 340.8V352H179.359V342.192H176.831V340.8H180.943ZM187.834 346.944H192.138V348.272H187.834V346.944ZM206.272 340.8V341.888L201.744 352H200.048L204.48 342.192H199.36V344.192H197.824V340.8H206.272Z" fill="#969696"/>
<path d="M259.064 352L259.048 343.84L255 350.64H254.264L250.216 343.888V352H248.68V340.8H249.992L254.664 348.672L259.272 340.8H260.584L260.6 352H259.064ZM266.825 343.44C267.999 343.44 268.895 343.728 269.513 344.304C270.143 344.88 270.457 345.739 270.457 346.88V352H269.001V350.88C268.745 351.275 268.377 351.579 267.897 351.792C267.428 351.995 266.868 352.096 266.217 352.096C265.268 352.096 264.505 351.867 263.929 351.408C263.364 350.949 263.081 350.347 263.081 349.6C263.081 348.853 263.353 348.256 263.897 347.808C264.441 347.349 265.305 347.12 266.489 347.12H268.921V346.816C268.921 346.155 268.729 345.648 268.345 345.296C267.961 344.944 267.396 344.768 266.649 344.768C266.148 344.768 265.657 344.853 265.177 345.024C264.697 345.184 264.292 345.403 263.961 345.68L263.321 344.528C263.759 344.176 264.281 343.909 264.889 343.728C265.497 343.536 266.143 343.44 266.825 343.44ZM266.473 350.912C267.06 350.912 267.567 350.784 267.993 350.528C268.42 350.261 268.729 349.888 268.921 349.408V348.224H266.553C265.252 348.224 264.601 348.661 264.601 349.536C264.601 349.963 264.767 350.299 265.097 350.544C265.428 350.789 265.887 350.912 266.473 350.912ZM274.772 344.944C275.038 344.453 275.433 344.08 275.956 343.824C276.478 343.568 277.113 343.44 277.86 343.44V344.928C277.774 344.917 277.657 344.912 277.508 344.912C276.676 344.912 276.02 345.163 275.54 345.664C275.07 346.155 274.836 346.859 274.836 347.776V352H273.3V343.52H274.772V344.944ZM290.319 346.128C290.959 346.373 291.45 346.725 291.791 347.184C292.132 347.643 292.303 348.192 292.303 348.832C292.303 349.504 292.122 350.091 291.759 350.592C291.396 351.083 290.879 351.461 290.207 351.728C289.535 351.995 288.746 352.128 287.839 352.128C286.943 352.128 286.159 351.995 285.487 351.728C284.826 351.461 284.314 351.083 283.951 350.592C283.588 350.091 283.407 349.504 283.407 348.832C283.407 348.192 283.572 347.643 283.903 347.184C284.244 346.725 284.735 346.373 285.375 346.128C284.863 345.883 284.474 345.557 284.207 345.152C283.94 344.747 283.807 344.267 283.807 343.712C283.807 343.093 283.972 342.555 284.303 342.096C284.644 341.637 285.119 341.285 285.727 341.04C286.335 340.795 287.039 340.672 287.839 340.672C288.65 340.672 289.359 340.795 289.967 341.04C290.586 341.285 291.06 341.637 291.391 342.096C291.732 342.555 291.903 343.093 291.903 343.712C291.903 344.256 291.764 344.736 291.487 345.152C291.22 345.557 290.831 345.883 290.319 346.128ZM287.839 341.968C287.082 341.968 286.484 342.133 286.047 342.464C285.61 342.784 285.391 343.221 285.391 343.776C285.391 344.331 285.604 344.768 286.031 345.088C286.468 345.408 287.071 345.568 287.839 345.568C288.618 345.568 289.226 345.408 289.663 345.088C290.111 344.768 290.335 344.331 290.335 343.776C290.335 343.221 290.106 342.784 289.647 342.464C289.199 342.133 288.596 341.968 287.839 341.968ZM287.839 350.832C288.724 350.832 289.423 350.651 289.935 350.288C290.447 349.915 290.703 349.413 290.703 348.784C290.703 348.165 290.447 347.68 289.935 347.328C289.423 346.965 288.724 346.784 287.839 346.784C286.954 346.784 286.26 346.965 285.759 347.328C285.258 347.68 285.007 348.165 285.007 348.784C285.007 349.413 285.258 349.915 285.759 350.288C286.26 350.651 286.954 350.832 287.839 350.832ZM298.209 346.944H302.513V348.272H298.209V346.944ZM311.959 340.8V352H310.375V342.192H307.847V340.8H311.959ZM324.153 349.248H322.025V352H320.473V349.248H314.249V348.128L319.977 340.8H321.705L316.217 347.872H320.521V345.44H322.025V347.872H324.153V349.248Z" fill="#969696"/>
<path d="M368.064 352L368.048 343.84L364 350.64H363.264L359.216 343.888V352H357.68V340.8H358.992L363.664 348.672L368.272 340.8H369.584L369.6 352H368.064ZM375.825 343.44C376.999 343.44 377.895 343.728 378.513 344.304C379.143 344.88 379.457 345.739 379.457 346.88V352H378.001V350.88C377.745 351.275 377.377 351.579 376.897 351.792C376.428 351.995 375.868 352.096 375.217 352.096C374.268 352.096 373.505 351.867 372.929 351.408C372.364 350.949 372.081 350.347 372.081 349.6C372.081 348.853 372.353 348.256 372.897 347.808C373.441 347.349 374.305 347.12 375.489 347.12H377.921V346.816C377.921 346.155 377.729 345.648 377.345 345.296C376.961 344.944 376.396 344.768 375.649 344.768C375.148 344.768 374.657 344.853 374.177 345.024C373.697 345.184 373.292 345.403 372.961 345.68L372.321 344.528C372.759 344.176 373.281 343.909 373.889 343.728C374.497 343.536 375.143 343.44 375.825 343.44ZM375.473 350.912C376.06 350.912 376.567 350.784 376.993 350.528C377.42 350.261 377.729 349.888 377.921 349.408V348.224H375.553C374.252 348.224 373.601 348.661 373.601 349.536C373.601 349.963 373.767 350.299 374.097 350.544C374.428 350.789 374.887 350.912 375.473 350.912ZM383.772 344.944C384.038 344.453 384.433 344.08 384.956 343.824C385.478 343.568 386.113 343.44 386.86 343.44V344.928C386.774 344.917 386.657 344.912 386.508 344.912C385.676 344.912 385.02 345.163 384.54 345.664C384.07 346.155 383.836 346.859 383.836 347.776V352H382.3V343.52H383.772V344.944ZM395.943 340.8V352H394.359V342.192H391.831V340.8H395.943ZM401.593 345.264C403.193 345.264 404.366 345.568 405.113 346.176C405.87 346.773 406.249 347.595 406.249 348.64C406.249 349.301 406.089 349.899 405.769 350.432C405.46 350.955 404.985 351.371 404.345 351.68C403.716 351.979 402.937 352.128 402.009 352.128C401.22 352.128 400.457 352.011 399.721 351.776C398.985 351.531 398.377 351.195 397.897 350.768L398.633 349.504C399.017 349.867 399.508 350.16 400.105 350.384C400.702 350.597 401.332 350.704 401.993 350.704C402.836 350.704 403.486 350.528 403.945 350.176C404.414 349.813 404.649 349.323 404.649 348.704C404.649 348.032 404.393 347.525 403.881 347.184C403.369 346.832 402.494 346.656 401.257 346.656H398.713L399.305 340.8H405.625V342.192H400.649L400.345 345.264H401.593ZM412.021 346.944H416.325V348.272H412.021V346.944ZM430.171 350.608V352H422.123V350.912L426.683 346.512C427.238 345.979 427.611 345.52 427.803 345.136C427.995 344.741 428.091 344.347 428.091 343.952C428.091 343.365 427.883 342.912 427.467 342.592C427.062 342.261 426.475 342.096 425.707 342.096C424.47 342.096 423.515 342.501 422.843 343.312L421.755 342.368C422.193 341.835 422.763 341.419 423.467 341.12C424.182 340.821 424.977 340.672 425.851 340.672C427.025 340.672 427.958 340.955 428.651 341.52C429.345 342.075 429.691 342.832 429.691 343.792C429.691 344.389 429.563 344.955 429.307 345.488C429.051 346.021 428.566 346.629 427.851 347.312L424.427 350.608H430.171ZM434.959 340.8V352H433.375V342.192H430.847V340.8H434.959Z" fill="#969696"/>
<path d="M476.064 352L476.048 343.84L472 350.64H471.264L467.216 343.888V352H465.68V340.8H466.992L471.664 348.672L476.272 340.8H477.584L477.6 352H476.064ZM483.825 343.44C484.999 343.44 485.895 343.728 486.513 344.304C487.143 344.88 487.457 345.739 487.457 346.88V352H486.001V350.88C485.745 351.275 485.377 351.579 484.897 351.792C484.428 351.995 483.868 352.096 483.217 352.096C482.268 352.096 481.505 351.867 480.929 351.408C480.364 350.949 480.081 350.347 480.081 349.6C480.081 348.853 480.353 348.256 480.897 347.808C481.441 347.349 482.305 347.12 483.489 347.12H485.921V346.816C485.921 346.155 485.729 345.648 485.345 345.296C484.961 344.944 484.396 344.768 483.649 344.768C483.148 344.768 482.657 344.853 482.177 345.024C481.697 345.184 481.292 345.403 480.961 345.68L480.321 344.528C480.759 344.176 481.281 343.909 481.889 343.728C482.497 343.536 483.143 343.44 483.825 343.44ZM483.473 350.912C484.06 350.912 484.567 350.784 484.993 350.528C485.42 350.261 485.729 349.888 485.921 349.408V348.224H483.553C482.252 348.224 481.601 348.661 481.601 349.536C481.601 349.963 481.767 350.299 482.097 350.544C482.428 350.789 482.887 350.912 483.473 350.912ZM491.772 344.944C492.038 344.453 492.433 344.08 492.956 343.824C493.478 343.568 494.113 343.44 494.86 343.44V344.928C494.774 344.917 494.657 344.912 494.508 344.912C493.676 344.912 493.02 345.163 492.54 345.664C492.07 346.155 491.836 346.859 491.836 347.776V352H490.3V343.52H491.772V344.944ZM508.343 350.608V352H500.295V350.912L504.855 346.512C505.41 345.979 505.783 345.52 505.975 345.136C506.167 344.741 506.263 344.347 506.263 343.952C506.263 343.365 506.055 342.912 505.639 342.592C505.234 342.261 504.647 342.096 503.879 342.096C502.642 342.096 501.687 342.501 501.015 343.312L499.927 342.368C500.364 341.835 500.935 341.419 501.639 341.12C502.354 340.821 503.148 340.672 504.023 340.672C505.196 340.672 506.13 340.955 506.823 341.52C507.516 342.075 507.863 342.832 507.863 343.792C507.863 344.389 507.735 344.955 507.479 345.488C507.223 346.021 506.738 346.629 506.023 347.312L502.599 350.608H508.343ZM517.531 350.608V352H509.483V350.912L514.043 346.512C514.597 345.979 514.971 345.52 515.163 345.136C515.355 344.741 515.451 344.347 515.451 343.952C515.451 343.365 515.243 342.912 514.827 342.592C514.421 342.261 513.835 342.096 513.067 342.096C511.829 342.096 510.875 342.501 510.203 343.312L509.115 342.368C509.552 341.835 510.123 341.419 510.827 341.12C511.541 340.821 512.336 340.672 513.211 340.672C514.384 340.672 515.317 340.955 516.011 341.52C516.704 342.075 517.051 342.832 517.051 343.792C517.051 344.389 516.923 344.955 516.667 345.488C516.411 346.021 515.925 346.629 515.211 347.312L511.787 350.608H517.531ZM523.287 346.944H527.591V348.272H523.287V346.944ZM541.437 350.608V352H533.389V350.912L537.949 346.512C538.504 345.979 538.877 345.52 539.069 345.136C539.261 344.741 539.357 344.347 539.357 343.952C539.357 343.365 539.149 342.912 538.733 342.592C538.328 342.261 537.741 342.096 536.973 342.096C535.736 342.096 534.781 342.501 534.109 343.312L533.021 342.368C533.458 341.835 534.029 341.419 534.733 341.12C535.448 340.821 536.242 340.672 537.117 340.672C538.29 340.672 539.224 340.955 539.917 341.52C540.61 342.075 540.957 342.832 540.957 343.792C540.957 344.389 540.829 344.955 540.573 345.488C540.317 346.021 539.832 346.629 539.117 347.312L535.693 350.608H541.437ZM549.6 346.128C550.24 346.373 550.731 346.725 551.072 347.184C551.414 347.643 551.584 348.192 551.584 348.832C551.584 349.504 551.403 350.091 551.04 350.592C550.678 351.083 550.16 351.461 549.488 351.728C548.816 351.995 548.027 352.128 547.12 352.128C546.224 352.128 545.44 351.995 544.768 351.728C544.107 351.461 543.595 351.083 543.232 350.592C542.87 350.091 542.688 349.504 542.688 348.832C542.688 348.192 542.854 347.643 543.184 347.184C543.526 346.725 544.016 346.373 544.656 346.128C544.144 345.883 543.755 345.557 543.488 345.152C543.222 344.747 543.088 344.267 543.088 343.712C543.088 343.093 543.254 342.555 543.584 342.096C543.926 341.637 544.4 341.285 545.008 341.04C545.616 340.795 546.32 340.672 547.12 340.672C547.931 340.672 548.64 340.795 549.248 341.04C549.867 341.285 550.342 341.637 550.672 342.096C551.014 342.555 551.184 343.093 551.184 343.712C551.184 344.256 551.046 344.736 550.768 345.152C550.502 345.557 550.112 345.883 549.6 346.128ZM547.12 341.968C546.363 341.968 545.766 342.133 545.328 342.464C544.891 342.784 544.672 343.221 544.672 343.776C544.672 344.331 544.886 344.768 545.312 345.088C545.75 345.408 546.352 345.568 547.12 345.568C547.899 345.568 548.507 345.408 548.944 345.088C549.392 344.768 549.616 344.331 549.616 343.776C549.616 343.221 549.387 342.784 548.928 342.464C548.48 342.133 547.878 341.968 547.12 341.968ZM547.12 350.832C548.006 350.832 548.704 350.651 549.216 350.288C549.728 349.915 549.984 349.413 549.984 348.784C549.984 348.165 549.728 347.68 549.216 347.328C548.704 346.965 548.006 346.784 547.12 346.784C546.235 346.784 545.542 346.965 545.04 347.328C544.539 347.68 544.288 348.165 544.288 348.784C544.288 349.413 544.539 349.915 545.04 350.288C545.542 350.651 546.235 350.832 547.12 350.832Z" fill="#969696"/>
<path d="M588.28 342.192V346.096H593.896V347.472H588.28V352H586.68V340.8H594.584V342.192H588.28ZM596.456 343.52H597.992V352H596.456V343.52ZM597.224 341.888C596.925 341.888 596.675 341.792 596.472 341.6C596.28 341.408 596.184 341.173 596.184 340.896C596.184 340.619 596.28 340.384 596.472 340.192C596.675 339.989 596.925 339.888 597.224 339.888C597.523 339.888 597.768 339.984 597.96 340.176C598.163 340.357 598.264 340.587 598.264 340.864C598.264 341.152 598.163 341.397 597.96 341.6C597.768 341.792 597.523 341.888 597.224 341.888ZM605.453 343.44C606.53 343.44 607.383 343.755 608.013 344.384C608.653 345.003 608.973 345.915 608.973 347.12V352H607.437V347.296C607.437 346.475 607.239 345.856 606.845 345.44C606.45 345.024 605.885 344.816 605.149 344.816C604.317 344.816 603.661 345.061 603.181 345.552C602.701 346.032 602.461 346.725 602.461 347.632V352H600.925V343.52H602.397V344.8C602.706 344.363 603.122 344.027 603.645 343.792C604.178 343.557 604.781 343.44 605.453 343.44ZM614.903 343.44C616.077 343.44 616.973 343.728 617.591 344.304C618.221 344.88 618.535 345.739 618.535 346.88V352H617.079V350.88C616.823 351.275 616.455 351.579 615.975 351.792C615.506 351.995 614.946 352.096 614.295 352.096C613.346 352.096 612.583 351.867 612.007 351.408C611.442 350.949 611.159 350.347 611.159 349.6C611.159 348.853 611.431 348.256 611.975 347.808C612.519 347.349 613.383 347.12 614.567 347.12H616.999V346.816C616.999 346.155 616.807 345.648 616.423 345.296C616.039 344.944 615.474 344.768 614.727 344.768C614.226 344.768 613.735 344.853 613.255 345.024C612.775 345.184 612.37 345.403 612.039 345.68L611.399 344.528C611.837 344.176 612.359 343.909 612.967 343.728C613.575 343.536 614.221 343.44 614.903 343.44ZM614.551 350.912C615.138 350.912 615.645 350.784 616.071 350.528C616.498 350.261 616.807 349.888 616.999 349.408V348.224H614.631C613.33 348.224 612.679 348.661 612.679 349.536C612.679 349.963 612.845 350.299 613.175 350.544C613.506 350.789 613.965 350.912 614.551 350.912ZM621.378 340.128H622.914V352H621.378V340.128ZM642.976 343.52L639.808 352H638.336L635.888 345.568L633.408 352H631.936L628.784 343.52H630.24L632.704 350.272L635.264 343.52H636.56L639.072 350.304L641.6 343.52H642.976ZM647.83 348.048L646.07 349.68V352H644.534V340.128H646.07V347.744L650.694 343.52H652.55L648.982 347.024L652.902 352H651.014L647.83 348.048Z" fill="#969696"/>
<path d="M39.7088 212.8V224H38.1248V214.192H35.5968V212.8H39.7088ZM46.7346 224.128C45.8493 224.128 45.06 223.904 44.3666 223.456C43.684 222.997 43.1453 222.336 42.7506 221.472C42.356 220.608 42.1586 219.584 42.1586 218.4C42.1586 217.216 42.356 216.192 42.7506 215.328C43.1453 214.464 43.684 213.808 44.3666 213.36C45.06 212.901 45.8493 212.672 46.7346 212.672C47.6093 212.672 48.388 212.901 49.0706 213.36C49.764 213.808 50.308 214.464 50.7026 215.328C51.0973 216.192 51.2946 217.216 51.2946 218.4C51.2946 219.584 51.0973 220.608 50.7026 221.472C50.308 222.336 49.764 222.997 49.0706 223.456C48.388 223.904 47.6093 224.128 46.7346 224.128ZM46.7346 222.704C47.6306 222.704 48.3453 222.336 48.8786 221.6C49.4226 220.864 49.6946 219.797 49.6946 218.4C49.6946 217.003 49.4226 215.936 48.8786 215.2C48.3453 214.464 47.6306 214.096 46.7346 214.096C45.828 214.096 45.1026 214.464 44.5586 215.2C44.0253 215.936 43.7586 217.003 43.7586 218.4C43.7586 219.797 44.0253 220.864 44.5586 221.6C45.1026 222.336 45.828 222.704 46.7346 222.704ZM57.4065 224.128C56.5212 224.128 55.7318 223.904 55.0385 223.456C54.3558 222.997 53.8172 222.336 53.4225 221.472C53.0278 220.608 52.8305 219.584 52.8305 218.4C52.8305 217.216 53.0278 216.192 53.4225 215.328C53.8172 214.464 54.3558 213.808 55.0385 213.36C55.7318 212.901 56.5212 212.672 57.4065 212.672C58.2812 212.672 59.0598 212.901 59.7425 213.36C60.4358 213.808 60.9798 214.464 61.3745 215.328C61.7692 216.192 61.9665 217.216 61.9665 218.4C61.9665 219.584 61.7692 220.608 61.3745 221.472C60.9798 222.336 60.4358 222.997 59.7425 223.456C59.0598 223.904 58.2812 224.128 57.4065 224.128ZM57.4065 222.704C58.3025 222.704 59.0172 222.336 59.5505 221.6C60.0945 220.864 60.3665 219.797 60.3665 218.4C60.3665 217.003 60.0945 215.936 59.5505 215.2C59.0172 214.464 58.3025 214.096 57.4065 214.096C56.4998 214.096 55.7745 214.464 55.2305 215.2C54.6972 215.936 54.4305 217.003 54.4305 218.4C54.4305 219.797 54.6972 220.864 55.2305 221.6C55.7745 222.336 56.4998 222.704 57.4065 222.704ZM64.3869 221.904C64.6855 221.904 64.9309 222.011 65.1229 222.224C65.3255 222.427 65.4269 222.683 65.4269 222.992C65.4269 223.152 65.4055 223.307 65.3629 223.456C65.3309 223.605 65.2615 223.835 65.1549 224.144L64.4029 226.368H63.3949L63.9869 223.984C63.7842 223.909 63.6189 223.787 63.4909 223.616C63.3735 223.435 63.3149 223.227 63.3149 222.992C63.3149 222.672 63.4162 222.411 63.6189 222.208C63.8215 222.005 64.0775 221.904 64.3869 221.904ZM71.3284 224.128C70.443 224.128 69.6537 223.904 68.9604 223.456C68.2777 222.997 67.739 222.336 67.3444 221.472C66.9497 220.608 66.7524 219.584 66.7524 218.4C66.7524 217.216 66.9497 216.192 67.3444 215.328C67.739 214.464 68.2777 213.808 68.9604 213.36C69.6537 212.901 70.443 212.672 71.3284 212.672C72.203 212.672 72.9817 212.901 73.6644 213.36C74.3577 213.808 74.9017 214.464 75.2964 215.328C75.691 216.192 75.8884 217.216 75.8884 218.4C75.8884 219.584 75.691 220.608 75.2964 221.472C74.9017 222.336 74.3577 222.997 73.6644 223.456C72.9817 223.904 72.203 224.128 71.3284 224.128ZM71.3284 222.704C72.2244 222.704 72.939 222.336 73.4724 221.6C74.0164 220.864 74.2884 219.797 74.2884 218.4C74.2884 217.003 74.0164 215.936 73.4724 215.2C72.939 214.464 72.2244 214.096 71.3284 214.096C70.4217 214.096 69.6964 214.464 69.1524 215.2C68.619 215.936 68.3524 217.003 68.3524 218.4C68.3524 219.797 68.619 220.864 69.1524 221.6C69.6964 222.336 70.4217 222.704 71.3284 222.704ZM82.0003 224.128C81.1149 224.128 80.3256 223.904 79.6323 223.456C78.9496 222.997 78.4109 222.336 78.0163 221.472C77.6216 220.608 77.4243 219.584 77.4243 218.4C77.4243 217.216 77.6216 216.192 78.0163 215.328C78.4109 214.464 78.9496 213.808 79.6323 213.36C80.3256 212.901 81.1149 212.672 82.0003 212.672C82.8749 212.672 83.6536 212.901 84.3363 213.36C85.0296 213.808 85.5736 214.464 85.9683 215.328C86.3629 216.192 86.5603 217.216 86.5603 218.4C86.5603 219.584 86.3629 220.608 85.9683 221.472C85.5736 222.336 85.0296 222.997 84.3363 223.456C83.6536 223.904 82.8749 224.128 82.0003 224.128ZM82.0003 222.704C82.8963 222.704 83.6109 222.336 84.1443 221.6C84.6883 220.864 84.9603 219.797 84.9603 218.4C84.9603 217.003 84.6883 215.936 84.1443 215.2C83.6109 214.464 82.8963 214.096 82.0003 214.096C81.0936 214.096 80.3683 214.464 79.8243 215.2C79.2909 215.936 79.0243 217.003 79.0243 218.4C79.0243 219.797 79.2909 220.864 79.8243 221.6C80.3683 222.336 81.0936 222.704 82.0003 222.704ZM92.6721 224.128C91.7868 224.128 90.9975 223.904 90.3041 223.456C89.6215 222.997 89.0828 222.336 88.6881 221.472C88.2935 220.608 88.0961 219.584 88.0961 218.4C88.0961 217.216 88.2935 216.192 88.6881 215.328C89.0828 214.464 89.6215 213.808 90.3041 213.36C90.9975 212.901 91.7868 212.672 92.6721 212.672C93.5468 212.672 94.3255 212.901 95.0081 213.36C95.7015 213.808 96.2455 214.464 96.6401 215.328C97.0348 216.192 97.2321 217.216 97.2321 218.4C97.2321 219.584 97.0348 220.608 96.6401 221.472C96.2455 222.336 95.7015 222.997 95.0081 223.456C94.3255 223.904 93.5468 224.128 92.6721 224.128ZM92.6721 222.704C93.5681 222.704 94.2828 222.336 94.8161 221.6C95.3601 220.864 95.6321 219.797 95.6321 218.4C95.6321 217.003 95.3601 215.936 94.8161 215.2C94.2828 214.464 93.5681 214.096 92.6721 214.096C91.7655 214.096 91.0401 214.464 90.4961 215.2C89.9628 215.936 89.6961 217.003 89.6961 218.4C89.6961 219.797 89.9628 220.864 90.4961 221.6C91.0401 222.336 91.7655 222.704 92.6721 222.704Z" fill="#969696"/>
<path d="M41.1931 160.8V172H39.6091V162.192H37.0811V160.8H41.1931ZM46.843 165.264C48.443 165.264 49.6163 165.568 50.363 166.176C51.1203 166.773 51.499 167.595 51.499 168.64C51.499 169.301 51.339 169.899 51.019 170.432C50.7097 170.955 50.235 171.371 49.595 171.68C48.9657 171.979 48.187 172.128 47.259 172.128C46.4697 172.128 45.707 172.011 44.971 171.776C44.235 171.531 43.627 171.195 43.147 170.768L43.883 169.504C44.267 169.867 44.7577 170.16 45.355 170.384C45.9523 170.597 46.5817 170.704 47.243 170.704C48.0857 170.704 48.7363 170.528 49.195 170.176C49.6643 169.813 49.899 169.323 49.899 168.704C49.899 168.032 49.643 167.525 49.131 167.184C48.619 166.832 47.7443 166.656 46.507 166.656H43.963L44.555 160.8H50.875V162.192H45.899L45.595 165.264H46.843ZM57.4065 172.128C56.5212 172.128 55.7318 171.904 55.0385 171.456C54.3558 170.997 53.8172 170.336 53.4225 169.472C53.0278 168.608 52.8305 167.584 52.8305 166.4C52.8305 165.216 53.0278 164.192 53.4225 163.328C53.8172 162.464 54.3558 161.808 55.0385 161.36C55.7318 160.901 56.5212 160.672 57.4065 160.672C58.2812 160.672 59.0598 160.901 59.7425 161.36C60.4358 161.808 60.9798 162.464 61.3745 163.328C61.7692 164.192 61.9665 165.216 61.9665 166.4C61.9665 167.584 61.7692 168.608 61.3745 169.472C60.9798 170.336 60.4358 170.997 59.7425 171.456C59.0598 171.904 58.2812 172.128 57.4065 172.128ZM57.4065 170.704C58.3025 170.704 59.0172 170.336 59.5505 169.6C60.0945 168.864 60.3665 167.797 60.3665 166.4C60.3665 165.003 60.0945 163.936 59.5505 163.2C59.0172 162.464 58.3025 162.096 57.4065 162.096C56.4998 162.096 55.7745 162.464 55.2305 163.2C54.6972 163.936 54.4305 165.003 54.4305 166.4C54.4305 167.797 54.6972 168.864 55.2305 169.6C55.7745 170.336 56.4998 170.704 57.4065 170.704ZM64.3869 169.904C64.6855 169.904 64.9309 170.011 65.1229 170.224C65.3255 170.427 65.4269 170.683 65.4269 170.992C65.4269 171.152 65.4055 171.307 65.3629 171.456C65.3309 171.605 65.2615 171.835 65.1549 172.144L64.4029 174.368H63.3949L63.9869 171.984C63.7842 171.909 63.6189 171.787 63.4909 171.616C63.3735 171.435 63.3149 171.227 63.3149 170.992C63.3149 170.672 63.4162 170.411 63.6189 170.208C63.8215 170.005 64.0775 169.904 64.3869 169.904ZM71.3284 172.128C70.443 172.128 69.6537 171.904 68.9604 171.456C68.2777 170.997 67.739 170.336 67.3444 169.472C66.9497 168.608 66.7524 167.584 66.7524 166.4C66.7524 165.216 66.9497 164.192 67.3444 163.328C67.739 162.464 68.2777 161.808 68.9604 161.36C69.6537 160.901 70.443 160.672 71.3284 160.672C72.203 160.672 72.9817 160.901 73.6644 161.36C74.3577 161.808 74.9017 162.464 75.2964 163.328C75.691 164.192 75.8884 165.216 75.8884 166.4C75.8884 167.584 75.691 168.608 75.2964 169.472C74.9017 170.336 74.3577 170.997 73.6644 171.456C72.9817 171.904 72.203 172.128 71.3284 172.128ZM71.3284 170.704C72.2244 170.704 72.939 170.336 73.4724 169.6C74.0164 168.864 74.2884 167.797 74.2884 166.4C74.2884 165.003 74.0164 163.936 73.4724 163.2C72.939 162.464 72.2244 162.096 71.3284 162.096C70.4217 162.096 69.6964 162.464 69.1524 163.2C68.619 163.936 68.3524 165.003 68.3524 166.4C68.3524 167.797 68.619 168.864 69.1524 169.6C69.6964 170.336 70.4217 170.704 71.3284 170.704ZM82.0003 172.128C81.1149 172.128 80.3256 171.904 79.6323 171.456C78.9496 170.997 78.4109 170.336 78.0163 169.472C77.6216 168.608 77.4243 167.584 77.4243 166.4C77.4243 165.216 77.6216 164.192 78.0163 163.328C78.4109 162.464 78.9496 161.808 79.6323 161.36C80.3256 160.901 81.1149 160.672 82.0003 160.672C82.8749 160.672 83.6536 160.901 84.3363 161.36C85.0296 161.808 85.5736 162.464 85.9683 163.328C86.3629 164.192 86.5603 165.216 86.5603 166.4C86.5603 167.584 86.3629 168.608 85.9683 169.472C85.5736 170.336 85.0296 170.997 84.3363 171.456C83.6536 171.904 82.8749 172.128 82.0003 172.128ZM82.0003 170.704C82.8963 170.704 83.6109 170.336 84.1443 169.6C84.6883 168.864 84.9603 167.797 84.9603 166.4C84.9603 165.003 84.6883 163.936 84.1443 163.2C83.6109 162.464 82.8963 162.096 82.0003 162.096C81.0936 162.096 80.3683 162.464 79.8243 163.2C79.2909 163.936 79.0243 165.003 79.0243 166.4C79.0243 167.797 79.2909 168.864 79.8243 169.6C80.3683 170.336 81.0936 170.704 82.0003 170.704ZM92.6721 172.128C91.7868 172.128 90.9975 171.904 90.3041 171.456C89.6215 170.997 89.0828 170.336 88.6881 169.472C88.2935 168.608 88.0961 167.584 88.0961 166.4C88.0961 165.216 88.2935 164.192 88.6881 163.328C89.0828 162.464 89.6215 161.808 90.3041 161.36C90.9975 160.901 91.7868 160.672 92.6721 160.672C93.5468 160.672 94.3255 160.901 95.0081 161.36C95.7015 161.808 96.2455 162.464 96.6401 163.328C97.0348 164.192 97.2321 165.216 97.2321 166.4C97.2321 167.584 97.0348 168.608 96.6401 169.472C96.2455 170.336 95.7015 170.997 95.0081 171.456C94.3255 171.904 93.5468 172.128 92.6721 172.128ZM92.6721 170.704C93.5681 170.704 94.2828 170.336 94.8161 169.6C95.3601 168.864 95.6321 167.797 95.6321 166.4C95.6321 165.003 95.3601 163.936 94.8161 163.2C94.2828 162.464 93.5681 162.096 92.6721 162.096C91.7655 162.096 91.0401 162.464 90.4961 163.2C89.9628 163.936 89.6961 165.003 89.6961 166.4C89.6961 167.797 89.9628 168.864 90.4961 169.6C91.0401 170.336 91.7655 170.704 92.6721 170.704Z" fill="#969696"/>
<path d="M40.89 118.608V120H32.842V118.912L37.402 114.512C37.9567 113.979 38.33 113.52 38.522 113.136C38.714 112.741 38.81 112.347 38.81 111.952C38.81 111.365 38.602 110.912 38.186 110.592C37.7807 110.261 37.194 110.096 36.426 110.096C35.1887 110.096 34.234 110.501 33.562 111.312L32.474 110.368C32.9113 109.835 33.482 109.419 34.186 109.12C34.9007 108.821 35.6953 108.672 36.57 108.672C37.7433 108.672 38.6767 108.955 39.37 109.52C40.0633 110.075 40.41 110.832 40.41 111.792C40.41 112.389 40.282 112.955 40.026 113.488C39.77 114.021 39.2847 114.629 38.57 115.312L35.146 118.608H40.89ZM46.7346 120.128C45.8493 120.128 45.06 119.904 44.3666 119.456C43.684 118.997 43.1453 118.336 42.7506 117.472C42.356 116.608 42.1586 115.584 42.1586 114.4C42.1586 113.216 42.356 112.192 42.7506 111.328C43.1453 110.464 43.684 109.808 44.3666 109.36C45.06 108.901 45.8493 108.672 46.7346 108.672C47.6093 108.672 48.388 108.901 49.0706 109.36C49.764 109.808 50.308 110.464 50.7026 111.328C51.0973 112.192 51.2946 113.216 51.2946 114.4C51.2946 115.584 51.0973 116.608 50.7026 117.472C50.308 118.336 49.764 118.997 49.0706 119.456C48.388 119.904 47.6093 120.128 46.7346 120.128ZM46.7346 118.704C47.6306 118.704 48.3453 118.336 48.8786 117.6C49.4226 116.864 49.6946 115.797 49.6946 114.4C49.6946 113.003 49.4226 111.936 48.8786 111.2C48.3453 110.464 47.6306 110.096 46.7346 110.096C45.828 110.096 45.1026 110.464 44.5586 111.2C44.0253 111.936 43.7586 113.003 43.7586 114.4C43.7586 115.797 44.0253 116.864 44.5586 117.6C45.1026 118.336 45.828 118.704 46.7346 118.704ZM57.4065 120.128C56.5212 120.128 55.7318 119.904 55.0385 119.456C54.3558 118.997 53.8172 118.336 53.4225 117.472C53.0278 116.608 52.8305 115.584 52.8305 114.4C52.8305 113.216 53.0278 112.192 53.4225 111.328C53.8172 110.464 54.3558 109.808 55.0385 109.36C55.7318 108.901 56.5212 108.672 57.4065 108.672C58.2812 108.672 59.0598 108.901 59.7425 109.36C60.4358 109.808 60.9798 110.464 61.3745 111.328C61.7692 112.192 61.9665 113.216 61.9665 114.4C61.9665 115.584 61.7692 116.608 61.3745 117.472C60.9798 118.336 60.4358 118.997 59.7425 119.456C59.0598 119.904 58.2812 120.128 57.4065 120.128ZM57.4065 118.704C58.3025 118.704 59.0172 118.336 59.5505 117.6C60.0945 116.864 60.3665 115.797 60.3665 114.4C60.3665 113.003 60.0945 111.936 59.5505 111.2C59.0172 110.464 58.3025 110.096 57.4065 110.096C56.4998 110.096 55.7745 110.464 55.2305 111.2C54.6972 111.936 54.4305 113.003 54.4305 114.4C54.4305 115.797 54.6972 116.864 55.2305 117.6C55.7745 118.336 56.4998 118.704 57.4065 118.704ZM64.3869 117.904C64.6855 117.904 64.9309 118.011 65.1229 118.224C65.3255 118.427 65.4269 118.683 65.4269 118.992C65.4269 119.152 65.4055 119.307 65.3629 119.456C65.3309 119.605 65.2615 119.835 65.1549 120.144L64.4029 122.368H63.3949L63.9869 119.984C63.7842 119.909 63.6189 119.787 63.4909 119.616C63.3735 119.435 63.3149 119.227 63.3149 118.992C63.3149 118.672 63.4162 118.411 63.6189 118.208C63.8215 118.005 64.0775 117.904 64.3869 117.904ZM71.3284 120.128C70.443 120.128 69.6537 119.904 68.9604 119.456C68.2777 118.997 67.739 118.336 67.3444 117.472C66.9497 116.608 66.7524 115.584 66.7524 114.4C66.7524 113.216 66.9497 112.192 67.3444 111.328C67.739 110.464 68.2777 109.808 68.9604 109.36C69.6537 108.901 70.443 108.672 71.3284 108.672C72.203 108.672 72.9817 108.901 73.6644 109.36C74.3577 109.808 74.9017 110.464 75.2964 111.328C75.691 112.192 75.8884 113.216 75.8884 114.4C75.8884 115.584 75.691 116.608 75.2964 117.472C74.9017 118.336 74.3577 118.997 73.6644 119.456C72.9817 119.904 72.203 120.128 71.3284 120.128ZM71.3284 118.704C72.2244 118.704 72.939 118.336 73.4724 117.6C74.0164 116.864 74.2884 115.797 74.2884 114.4C74.2884 113.003 74.0164 111.936 73.4724 111.2C72.939 110.464 72.2244 110.096 71.3284 110.096C70.4217 110.096 69.6964 110.464 69.1524 111.2C68.619 111.936 68.3524 113.003 68.3524 114.4C68.3524 115.797 68.619 116.864 69.1524 117.6C69.6964 118.336 70.4217 118.704 71.3284 118.704ZM82.0003 120.128C81.1149 120.128 80.3256 119.904 79.6323 119.456C78.9496 118.997 78.4109 118.336 78.0163 117.472C77.6216 116.608 77.4243 115.584 77.4243 114.4C77.4243 113.216 77.6216 112.192 78.0163 111.328C78.4109 110.464 78.9496 109.808 79.6323 109.36C80.3256 108.901 81.1149 108.672 82.0003 108.672C82.8749 108.672 83.6536 108.901 84.3363 109.36C85.0296 109.808 85.5736 110.464 85.9683 111.328C86.3629 112.192 86.5603 113.216 86.5603 114.4C86.5603 115.584 86.3629 116.608 85.9683 117.472C85.5736 118.336 85.0296 118.997 84.3363 119.456C83.6536 119.904 82.8749 120.128 82.0003 120.128ZM82.0003 118.704C82.8963 118.704 83.6109 118.336 84.1443 117.6C84.6883 116.864 84.9603 115.797 84.9603 114.4C84.9603 113.003 84.6883 111.936 84.1443 111.2C83.6109 110.464 82.8963 110.096 82.0003 110.096C81.0936 110.096 80.3683 110.464 79.8243 111.2C79.2909 111.936 79.0243 113.003 79.0243 114.4C79.0243 115.797 79.2909 116.864 79.8243 117.6C80.3683 118.336 81.0936 118.704 82.0003 118.704ZM92.6721 120.128C91.7868 120.128 90.9975 119.904 90.3041 119.456C89.6215 118.997 89.0828 118.336 88.6881 117.472C88.2935 116.608 88.0961 115.584 88.0961 114.4C88.0961 113.216 88.2935 112.192 88.6881 111.328C89.0828 110.464 89.6215 109.808 90.3041 109.36C90.9975 108.901 91.7868 108.672 92.6721 108.672C93.5468 108.672 94.3255 108.901 95.0081 109.36C95.7015 109.808 96.2455 110.464 96.6401 111.328C97.0348 112.192 97.2321 113.216 97.2321 114.4C97.2321 115.584 97.0348 116.608 96.6401 117.472C96.2455 118.336 95.7015 118.997 95.0081 119.456C94.3255 119.904 93.5468 120.128 92.6721 120.128ZM92.6721 118.704C93.5681 118.704 94.2828 118.336 94.8161 117.6C95.3601 116.864 95.6321 115.797 95.6321 114.4C95.6321 113.003 95.3601 111.936 94.8161 111.2C94.2828 110.464 93.5681 110.096 92.6721 110.096C91.7655 110.096 91.0401 110.464 90.4961 111.2C89.9628 111.936 89.6961 113.003 89.6961 114.4C89.6961 115.797 89.9628 116.864 90.4961 117.6C91.0401 118.336 91.7655 118.704 92.6721 118.704Z" fill="#969696"/>
<line x1="112" y1="323.5" x2="707" y2="323.5" stroke="#E0E0E0" stroke-dasharray="8 8"/>
<line x1="112" y1="271.5" x2="707" y2="271.5" stroke="#E0E0E0" stroke-dasharray="8 8"/>
<line x1="112" y1="219.5" x2="707" y2="219.5" stroke="#E0E0E0" stroke-dasharray="8 8"/>
<line x1="112" y1="167.5" x2="707" y2="167.5" stroke="#E0E0E0" stroke-dasharray="8 8"/>
<line x1="112" y1="115.5" x2="707" y2="115.5" stroke="#E0E0E0" stroke-dasharray="8 8"/>
<path d="M1.504 12.8H3.584V22.24H9.44V24H1.504V12.8ZM14.2323 15.36C15.4909 15.36 16.4509 15.664 17.1123 16.272C17.7843 16.8693 18.1203 17.776 18.1203 18.992V24H16.2323V22.96C15.9869 23.3333 15.6349 23.6213 15.1763 23.824C14.7283 24.016 14.1843 24.112 13.5443 24.112C12.9043 24.112 12.3443 24.0053 11.8643 23.792C11.3843 23.568 11.0109 23.264 10.7443 22.88C10.4883 22.4853 10.3603 22.0427 10.3603 21.552C10.3603 20.784 10.6429 20.1707 11.2083 19.712C11.7843 19.2427 12.6856 19.008 13.9123 19.008H16.1203V18.88C16.1203 18.2827 15.9389 17.824 15.5763 17.504C15.2243 17.184 14.6963 17.024 13.9923 17.024C13.5123 17.024 13.0376 17.0987 12.5683 17.248C12.1096 17.3973 11.7203 17.6053 11.4003 17.872L10.6163 16.416C11.0643 16.0747 11.6029 15.8133 12.2323 15.632C12.8616 15.4507 13.5283 15.36 14.2323 15.36ZM13.9603 22.656C14.4616 22.656 14.9043 22.544 15.2883 22.32C15.6829 22.0853 15.9603 21.7547 16.1203 21.328V20.336H14.0563C12.9043 20.336 12.3283 20.7147 12.3283 21.472C12.3283 21.8347 12.4723 22.1227 12.7603 22.336C13.0483 22.5493 13.4483 22.656 13.9603 22.656ZM23.327 24.112C22.6337 24.112 21.9563 24.0213 21.295 23.84C20.6337 23.6587 20.1057 23.4293 19.711 23.152L20.479 21.632C20.863 21.888 21.3217 22.096 21.855 22.256C22.399 22.4053 22.9323 22.48 23.455 22.48C24.6497 22.48 25.247 22.1653 25.247 21.536C25.247 21.2373 25.0923 21.0293 24.783 20.912C24.4843 20.7947 23.999 20.6827 23.327 20.576C22.623 20.4693 22.047 20.3467 21.599 20.208C21.1617 20.0693 20.7777 19.8293 20.447 19.488C20.127 19.136 19.967 18.6507 19.967 18.032C19.967 17.2213 20.303 16.576 20.975 16.096C21.6577 15.6053 22.575 15.36 23.727 15.36C24.3137 15.36 24.9003 15.4293 25.487 15.568C26.0737 15.696 26.5537 15.872 26.927 16.096L26.159 17.616C25.4337 17.1893 24.6177 16.976 23.711 16.976C23.1243 16.976 22.6763 17.0667 22.367 17.248C22.0683 17.4187 21.919 17.648 21.919 17.936C21.919 18.256 22.079 18.4853 22.399 18.624C22.7297 18.752 23.2363 18.8747 23.919 18.992C24.6017 19.0987 25.1617 19.2213 25.599 19.36C26.0363 19.4987 26.4097 19.7333 26.719 20.064C27.039 20.3947 27.199 20.864 27.199 21.472C27.199 22.272 26.8523 22.912 26.159 23.392C25.4657 23.872 24.5217 24.112 23.327 24.112ZM34.0574 23.536C33.8227 23.728 33.5347 23.872 33.1934 23.968C32.8627 24.064 32.5107 24.112 32.1374 24.112C31.1987 24.112 30.4734 23.8667 29.9614 23.376C29.4494 22.8853 29.1934 22.1707 29.1934 21.232V17.12H27.7854V15.52H29.1934V13.568H31.1934V15.52H33.4814V17.12H31.1934V21.184C31.1934 21.6 31.2947 21.92 31.4974 22.144C31.7 22.3573 31.9934 22.464 32.3774 22.464C32.8254 22.464 33.1987 22.3467 33.4974 22.112L34.0574 23.536ZM44.2845 17.424C45.3192 17.552 46.1085 17.904 46.6525 18.48C47.1965 19.056 47.4685 19.776 47.4685 20.64C47.4685 21.2907 47.3032 21.8827 46.9725 22.416C46.6418 22.9493 46.1405 23.376 45.4685 23.696C44.8072 24.0053 43.9965 24.16 43.0365 24.16C42.2365 24.16 41.4632 24.048 40.7165 23.824C39.9805 23.5893 39.3512 23.2693 38.8285 22.864L39.7245 21.248C40.1298 21.5893 40.6205 21.8613 41.1965 22.064C41.7832 22.256 42.3858 22.352 43.0045 22.352C43.7405 22.352 44.3165 22.2027 44.7325 21.904C45.1592 21.5947 45.3725 21.1787 45.3725 20.656C45.3725 20.1333 45.1698 19.728 44.7645 19.44C44.3698 19.1413 43.7618 18.992 42.9405 18.992H41.9165V17.568L44.4605 14.544H39.3725V12.8H47.0045V14.192L44.2845 17.424ZM53.501 24.16C52.605 24.16 51.805 23.936 51.101 23.488C50.397 23.0293 49.8423 22.368 49.437 21.504C49.0317 20.6293 48.829 19.5947 48.829 18.4C48.829 17.2053 49.0317 16.176 49.437 15.312C49.8423 14.4373 50.397 13.776 51.101 13.328C51.805 12.8693 52.605 12.64 53.501 12.64C54.397 12.64 55.197 12.8693 55.901 13.328C56.6157 13.776 57.1757 14.4373 57.581 15.312C57.9863 16.176 58.189 17.2053 58.189 18.4C58.189 19.5947 57.9863 20.6293 57.581 21.504C57.1757 22.368 56.6157 23.0293 55.901 23.488C55.197 23.936 54.397 24.16 53.501 24.16ZM53.501 22.352C54.301 22.352 54.9303 22.0213 55.389 21.36C55.8583 20.6987 56.093 19.712 56.093 18.4C56.093 17.088 55.8583 16.1013 55.389 15.44C54.9303 14.7787 54.301 14.448 53.501 14.448C52.7117 14.448 52.0823 14.7787 51.613 15.44C51.1543 16.1013 50.925 17.088 50.925 18.4C50.925 19.712 51.1543 20.6987 51.613 21.36C52.0823 22.0213 52.7117 22.352 53.501 22.352ZM72.9925 12.128V24H71.0725V22.896C70.7418 23.3013 70.3312 23.6053 69.8405 23.808C69.3605 24.0107 68.8272 24.112 68.2405 24.112C67.4192 24.112 66.6778 23.9307 66.0165 23.568C65.3658 23.2053 64.8538 22.6933 64.4805 22.032C64.1072 21.36 63.9205 20.592 63.9205 19.728C63.9205 18.864 64.1072 18.1013 64.4805 17.44C64.8538 16.7787 65.3658 16.2667 66.0165 15.904C66.6778 15.5413 67.4192 15.36 68.2405 15.36C68.8058 15.36 69.3232 15.456 69.7925 15.648C70.2618 15.84 70.6618 16.128 70.9925 16.512V12.128H72.9925ZM68.4805 22.4C68.9605 22.4 69.3925 22.2933 69.7765 22.08C70.1605 21.856 70.4645 21.5413 70.6885 21.136C70.9125 20.7307 71.0245 20.2613 71.0245 19.728C71.0245 19.1947 70.9125 18.7253 70.6885 18.32C70.4645 17.9147 70.1605 17.6053 69.7765 17.392C69.3925 17.168 68.9605 17.056 68.4805 17.056C68.0005 17.056 67.5685 17.168 67.1845 17.392C66.8005 17.6053 66.4965 17.9147 66.2725 18.32C66.0485 18.7253 65.9365 19.1947 65.9365 19.728C65.9365 20.2613 66.0485 20.7307 66.2725 21.136C66.4965 21.5413 66.8005 21.856 67.1845 22.08C67.5685 22.2933 68.0005 22.4 68.4805 22.4ZM78.8729 15.36C80.1315 15.36 81.0915 15.664 81.7529 16.272C82.4249 16.8693 82.7609 17.776 82.7609 18.992V24H80.8729V22.96C80.6275 23.3333 80.2755 23.6213 79.8169 23.824C79.3689 24.016 78.8249 24.112 78.1849 24.112C77.5449 24.112 76.9849 24.0053 76.5049 23.792C76.0249 23.568 75.6515 23.264 75.3849 22.88C75.1289 22.4853 75.0009 22.0427 75.0009 21.552C75.0009 20.784 75.2835 20.1707 75.8489 19.712C76.4249 19.2427 77.3262 19.008 78.5529 19.008H80.7609V18.88C80.7609 18.2827 80.5795 17.824 80.2169 17.504C79.8649 17.184 79.3369 17.024 78.6329 17.024C78.1529 17.024 77.6782 17.0987 77.2089 17.248C76.7502 17.3973 76.3609 17.6053 76.0409 17.872L75.2569 16.416C75.7049 16.0747 76.2435 15.8133 76.8729 15.632C77.5022 15.4507 78.1689 15.36 78.8729 15.36ZM78.6009 22.656C79.1022 22.656 79.5449 22.544 79.9289 22.32C80.3235 22.0853 80.6009 21.7547 80.7609 21.328V20.336H78.6969C77.5449 20.336 76.9689 20.7147 76.9689 21.472C76.9689 21.8347 77.1129 22.1227 77.4009 22.336C77.6889 22.5493 78.0889 22.656 78.6009 22.656ZM93.1714 15.456L89.1714 24.688C88.798 25.616 88.3447 26.2667 87.8114 26.64C87.278 27.024 86.6327 27.216 85.8754 27.216C85.4487 27.216 85.0274 27.1467 84.6114 27.008C84.1954 26.8693 83.854 26.6773 83.5874 26.432L84.3874 24.96C84.5794 25.1413 84.8034 25.2853 85.0594 25.392C85.326 25.4987 85.5927 25.552 85.8594 25.552C86.2114 25.552 86.4994 25.4613 86.7234 25.28C86.958 25.0987 87.1714 24.7947 87.3634 24.368L87.5074 24.032L83.7794 15.456H85.8594L88.5474 21.776L91.2514 15.456H93.1714ZM96.952 24.112C96.2587 24.112 95.5813 24.0213 94.92 23.84C94.2587 23.6587 93.7307 23.4293 93.336 23.152L94.104 21.632C94.488 21.888 94.9467 22.096 95.48 22.256C96.024 22.4053 96.5573 22.48 97.08 22.48C98.2747 22.48 98.872 22.1653 98.872 21.536C98.872 21.2373 98.7173 21.0293 98.408 20.912C98.1093 20.7947 97.624 20.6827 96.952 20.576C96.248 20.4693 95.672 20.3467 95.224 20.208C94.7867 20.0693 94.4027 19.8293 94.072 19.488C93.752 19.136 93.592 18.6507 93.592 18.032C93.592 17.2213 93.928 16.576 94.6 16.096C95.2827 15.6053 96.2 15.36 97.352 15.36C97.9387 15.36 98.5253 15.4293 99.112 15.568C99.6987 15.696 100.179 15.872 100.552 16.096L99.784 17.616C99.0587 17.1893 98.2427 16.976 97.336 16.976C96.7493 16.976 96.3013 17.0667 95.992 17.248C95.6933 17.4187 95.544 17.648 95.544 17.936C95.544 18.256 95.704 18.4853 96.024 18.624C96.3547 18.752 96.8613 18.8747 97.544 18.992C98.2267 19.0987 98.7867 19.2213 99.224 19.36C99.6613 19.4987 100.035 19.7333 100.344 20.064C100.664 20.3947 100.824 20.864 100.824 21.472C100.824 22.272 100.477 22.912 99.784 23.392C99.0907 23.872 98.1467 24.112 96.952 24.112Z" fill="#828282"/>
<rect x="120" width="36" height="36" rx="10" fill="#FAF2FF"/>
<path d="M138 22L132 14H144L138 22Z" fill="#BB6BD9"/>
<path d="M135 287C135 278.716 141.716 272 150 272H199C207.284 272 214 278.716 214 287V324H135V287Z" fill="#ECCCFF"/>
<path d="M247 208C247 199.716 253.716 193 262 193H311C319.284 193 326 199.716 326 208V324H247V208Z" fill="#ECCCFF"/>
<path d="M357 208C357 199.716 363.716 193 372 193H421C429.284 193 436 199.716 436 208V324H357V208Z" fill="#ECCCFF"/>
<path d="M469 208C469 199.716 475.716 193 484 193H533C541.284 193 548 199.716 548 208V324H469V208Z" fill="#ECCCFF"/>
<path d="M579 140C579 131.716 585.716 125 594 125H643C651.284 125 658 131.716 658 140V324H579V140Z" fill="#ECCCFF"/>
</svg>
