<svg width="344" height="364" viewBox="0 0 344 364" fill="none" xmlns="http://www.w3.org/2000/svg">
<rect x="0.5" y="0.5" width="343" height="363" rx="39.5" stroke="#F2F2F2"/>
<path d="M45.008 40.192C44.1227 40.192 43.264 40.0747 42.432 39.84C41.6107 39.5947 40.9493 39.28 40.448 38.896L41.328 36.944C41.808 37.296 42.3787 37.5787 43.04 37.792C43.7013 38.0053 44.3627 38.112 45.024 38.112C45.76 38.112 46.304 38.0053 46.656 37.792C47.008 37.568 47.184 37.2747 47.184 36.912C47.184 36.6453 47.0773 36.4267 46.864 36.256C46.6613 36.0747 46.3947 35.9307 46.064 35.824C45.744 35.7173 45.3067 35.6 44.752 35.472C43.8987 35.2693 43.2 35.0667 42.656 34.864C42.112 34.6613 41.6427 34.336 41.248 33.888C40.864 33.44 40.672 32.8427 40.672 32.096C40.672 31.4453 40.848 30.8587 41.2 30.336C41.552 29.8027 42.08 29.3813 42.784 29.072C43.4987 28.7627 44.368 28.608 45.392 28.608C46.1067 28.608 46.8053 28.6933 47.488 28.864C48.1707 29.0347 48.768 29.28 49.28 29.6L48.48 31.568C47.4453 30.9813 46.4107 30.688 45.376 30.688C44.6507 30.688 44.112 30.8053 43.76 31.04C43.4187 31.2747 43.248 31.584 43.248 31.968C43.248 32.352 43.4453 32.64 43.84 32.832C44.2453 33.0133 44.8587 33.1947 45.68 33.376C46.5333 33.5787 47.232 33.7813 47.776 33.984C48.32 34.1867 48.784 34.5067 49.168 34.944C49.5627 35.3813 49.76 35.9733 49.76 36.72C49.76 37.36 49.5787 37.9467 49.216 38.48C48.864 39.0027 48.3307 39.4187 47.616 39.728C46.9013 40.0373 46.032 40.192 45.008 40.192ZM60.0271 31.392V40H57.6591V38.976C57.3285 39.3493 56.9338 39.6373 56.4751 39.84C56.0165 40.032 55.5205 40.128 54.9871 40.128C53.8565 40.128 52.9605 39.8027 52.2991 39.152C51.6378 38.5013 51.3071 37.536 51.3071 36.256V31.392H53.8031V35.888C53.8031 37.2747 54.3845 37.968 55.5471 37.968C56.1445 37.968 56.6245 37.776 56.9871 37.392C57.3498 36.9973 57.5311 36.416 57.5311 35.648V31.392H60.0271ZM66.4995 40.128C65.5822 40.128 64.7555 39.9413 64.0195 39.568C63.2942 39.184 62.7235 38.656 62.3075 37.984C61.9022 37.312 61.6995 36.5493 61.6995 35.696C61.6995 34.8427 61.9022 34.08 62.3075 33.408C62.7235 32.736 63.2942 32.2133 64.0195 31.84C64.7555 31.456 65.5822 31.264 66.4995 31.264C67.4062 31.264 68.1955 31.456 68.8675 31.84C69.5502 32.2133 70.0462 32.752 70.3555 33.456L68.4195 34.496C67.9715 33.7067 67.3262 33.312 66.4835 33.312C65.8328 33.312 65.2942 33.5253 64.8675 33.952C64.4408 34.3787 64.2275 34.96 64.2275 35.696C64.2275 36.432 64.4408 37.0133 64.8675 37.44C65.2942 37.8667 65.8328 38.08 66.4835 38.08C67.3368 38.08 67.9822 37.6853 68.4195 36.896L70.3555 37.952C70.0462 38.6347 69.5502 39.168 68.8675 39.552C68.1955 39.936 67.4062 40.128 66.4995 40.128ZM75.8433 40.128C74.9259 40.128 74.0993 39.9413 73.3633 39.568C72.6379 39.184 72.0673 38.656 71.6513 37.984C71.2459 37.312 71.0433 36.5493 71.0433 35.696C71.0433 34.8427 71.2459 34.08 71.6513 33.408C72.0673 32.736 72.6379 32.2133 73.3633 31.84C74.0993 31.456 74.9259 31.264 75.8433 31.264C76.7499 31.264 77.5393 31.456 78.2113 31.84C78.8939 32.2133 79.3899 32.752 79.6993 33.456L77.7633 34.496C77.3153 33.7067 76.6699 33.312 75.8273 33.312C75.1766 33.312 74.6379 33.5253 74.2113 33.952C73.7846 34.3787 73.5713 34.96 73.5713 35.696C73.5713 36.432 73.7846 37.0133 74.2113 37.44C74.6379 37.8667 75.1766 38.08 75.8273 38.08C76.6806 38.08 77.3259 37.6853 77.7633 36.896L79.6993 37.952C79.3899 38.6347 78.8939 39.168 78.2113 39.552C77.5393 39.936 76.7499 40.128 75.8433 40.128ZM89.459 35.728C89.459 35.76 89.443 35.984 89.411 36.4H82.899C83.0163 36.9333 83.2937 37.3547 83.731 37.664C84.1683 37.9733 84.7123 38.128 85.363 38.128C85.811 38.128 86.2057 38.064 86.547 37.936C86.899 37.7973 87.2243 37.584 87.523 37.296L88.851 38.736C88.0403 39.664 86.8563 40.128 85.299 40.128C84.3283 40.128 83.4697 39.9413 82.723 39.568C81.9763 39.184 81.4003 38.656 80.995 37.984C80.5897 37.312 80.387 36.5493 80.387 35.696C80.387 34.8533 80.5843 34.096 80.979 33.424C81.3843 32.7413 81.9337 32.2133 82.627 31.84C83.331 31.456 84.115 31.264 84.979 31.264C85.8217 31.264 86.5843 31.4453 87.267 31.808C87.9497 32.1707 88.483 32.6933 88.867 33.376C89.2617 34.048 89.459 34.832 89.459 35.728ZM84.995 33.152C84.4297 33.152 83.955 33.312 83.571 33.632C83.187 33.952 82.9523 34.3893 82.867 34.944H87.107C87.0217 34.4 86.787 33.968 86.403 33.648C86.019 33.3173 85.5497 33.152 84.995 33.152ZM94.0168 40.128C93.3021 40.128 92.6034 40.0427 91.9208 39.872C91.2381 39.6907 90.6941 39.4667 90.2888 39.2L91.1208 37.408C91.5048 37.6533 91.9688 37.856 92.5128 38.016C93.0568 38.1653 93.5901 38.24 94.1128 38.24C95.1688 38.24 95.6968 37.9787 95.6968 37.456C95.6968 37.2107 95.5528 37.0347 95.2648 36.928C94.9768 36.8213 94.5341 36.7307 93.9368 36.656C93.2328 36.5493 92.6514 36.4267 92.1928 36.288C91.7341 36.1493 91.3341 35.904 90.9928 35.552C90.6621 35.2 90.4967 34.6987 90.4967 34.048C90.4967 33.504 90.6514 33.024 90.9608 32.608C91.2808 32.1813 91.7394 31.8507 92.3368 31.616C92.9448 31.3813 93.6594 31.264 94.4808 31.264C95.0888 31.264 95.6914 31.3333 96.2888 31.472C96.8968 31.6 97.3981 31.7813 97.7928 32.016L96.9608 33.792C96.2034 33.3653 95.3768 33.152 94.4808 33.152C93.9474 33.152 93.5474 33.2267 93.2808 33.376C93.0141 33.5253 92.8808 33.7173 92.8808 33.952C92.8808 34.2187 93.0248 34.4053 93.3128 34.512C93.6008 34.6187 94.0594 34.72 94.6888 34.816C95.3928 34.9333 95.9688 35.0613 96.4168 35.2C96.8648 35.328 97.2541 35.568 97.5848 35.92C97.9154 36.272 98.0808 36.7627 98.0808 37.392C98.0808 37.9253 97.9208 38.4 97.6008 38.816C97.2808 39.232 96.8114 39.5573 96.1928 39.792C95.5848 40.016 94.8594 40.128 94.0168 40.128ZM102.517 40.128C101.802 40.128 101.103 40.0427 100.421 39.872C99.7381 39.6907 99.1941 39.4667 98.7888 39.2L99.6208 37.408C100.005 37.6533 100.469 37.856 101.013 38.016C101.557 38.1653 102.09 38.24 102.613 38.24C103.669 38.24 104.197 37.9787 104.197 37.456C104.197 37.2107 104.053 37.0347 103.765 36.928C103.477 36.8213 103.034 36.7307 102.437 36.656C101.733 36.5493 101.151 36.4267 100.693 36.288C100.234 36.1493 99.8341 35.904 99.4928 35.552C99.1621 35.2 98.9967 34.6987 98.9967 34.048C98.9967 33.504 99.1514 33.024 99.4608 32.608C99.7808 32.1813 100.239 31.8507 100.837 31.616C101.445 31.3813 102.159 31.264 102.981 31.264C103.589 31.264 104.191 31.3333 104.789 31.472C105.397 31.6 105.898 31.7813 106.293 32.016L105.461 33.792C104.703 33.3653 103.877 33.152 102.981 33.152C102.447 33.152 102.047 33.2267 101.781 33.376C101.514 33.5253 101.381 33.7173 101.381 33.952C101.381 34.2187 101.525 34.4053 101.813 34.512C102.101 34.6187 102.559 34.72 103.189 34.816C103.893 34.9333 104.469 35.0613 104.917 35.2C105.365 35.328 105.754 35.568 106.085 35.92C106.415 36.272 106.581 36.7627 106.581 37.392C106.581 37.9253 106.421 38.4 106.101 38.816C105.781 39.232 105.311 39.5573 104.693 39.792C104.085 40.016 103.359 40.128 102.517 40.128ZM115.036 32.528C115.335 32.112 115.735 31.7973 116.236 31.584C116.748 31.3707 117.335 31.264 117.996 31.264V33.568C117.719 33.5467 117.532 33.536 117.436 33.536C116.721 33.536 116.161 33.7387 115.756 34.144C115.351 34.5387 115.148 35.136 115.148 35.936V40H112.652V31.392H115.036V32.528ZM122.905 31.264C124.239 31.264 125.263 31.584 125.977 32.224C126.692 32.8533 127.049 33.808 127.049 35.088V40H124.713V38.928C124.244 39.728 123.369 40.128 122.089 40.128C121.428 40.128 120.852 40.016 120.361 39.792C119.881 39.568 119.513 39.2587 119.257 38.864C119.001 38.4693 118.873 38.0213 118.873 37.52C118.873 36.72 119.172 36.0907 119.769 35.632C120.377 35.1733 121.311 34.944 122.569 34.944H124.553C124.553 34.4 124.388 33.984 124.057 33.696C123.727 33.3973 123.231 33.248 122.569 33.248C122.111 33.248 121.657 33.3227 121.209 33.472C120.772 33.6107 120.399 33.8027 120.089 34.048L119.193 32.304C119.663 31.9733 120.223 31.7173 120.873 31.536C121.535 31.3547 122.212 31.264 122.905 31.264ZM122.713 38.448C123.14 38.448 123.519 38.352 123.849 38.16C124.18 37.9573 124.415 37.664 124.553 37.28V36.4H122.841C121.817 36.4 121.305 36.736 121.305 37.408C121.305 37.728 121.428 37.984 121.673 38.176C121.929 38.3573 122.276 38.448 122.713 38.448ZM134.86 39.584C134.615 39.7653 134.311 39.904 133.948 40C133.596 40.0853 133.223 40.128 132.828 40.128C131.804 40.128 131.01 39.8667 130.444 39.344C129.89 38.8213 129.612 38.0533 129.612 37.04V33.504H128.284V31.584H129.612V29.488H132.108V31.584H134.252V33.504H132.108V37.008C132.108 37.3707 132.199 37.6533 132.38 37.856C132.572 38.048 132.839 38.144 133.18 38.144C133.575 38.144 133.911 38.0373 134.188 37.824L134.86 39.584ZM144.428 35.728C144.428 35.76 144.412 35.984 144.38 36.4H137.868C137.985 36.9333 138.262 37.3547 138.7 37.664C139.137 37.9733 139.681 38.128 140.332 38.128C140.78 38.128 141.174 38.064 141.516 37.936C141.868 37.7973 142.193 37.584 142.492 37.296L143.82 38.736C143.009 39.664 141.825 40.128 140.268 40.128C139.297 40.128 138.438 39.9413 137.692 39.568C136.945 39.184 136.369 38.656 135.964 37.984C135.558 37.312 135.356 36.5493 135.356 35.696C135.356 34.8533 135.553 34.096 135.948 33.424C136.353 32.7413 136.902 32.2133 137.596 31.84C138.3 31.456 139.084 31.264 139.948 31.264C140.79 31.264 141.553 31.4453 142.236 31.808C142.918 32.1707 143.452 32.6933 143.836 33.376C144.23 34.048 144.428 34.832 144.428 35.728ZM139.964 33.152C139.398 33.152 138.924 33.312 138.54 33.632C138.156 33.952 137.921 34.3893 137.836 34.944H142.076C141.99 34.4 141.756 33.968 141.372 33.648C140.988 33.3173 140.518 33.152 139.964 33.152Z" fill="#333333"/>
<circle cx="172" cy="169" r="75" stroke="#DFEEDB" stroke-width="24.7253"/>
<path d="M172 94C213.421 94 247 127.579 247 169C247 210.421 213.421 244 172 244C148.745 244 127.962 233.416 114.205 216.802" stroke="#A6D997" stroke-width="24.7253" stroke-linecap="round"/>
<path d="M157.153 162.184C158.917 162.184 160.297 162.724 161.293 163.804C162.289 164.872 162.787 166.414 162.787 168.43C162.787 169.858 162.517 171.082 161.977 172.102C161.449 173.122 160.699 173.896 159.727 174.424C158.755 174.952 157.633 175.216 156.361 175.216C155.689 175.216 155.047 175.144 154.435 175C153.823 174.844 153.301 174.628 152.869 174.352L153.949 172.21C154.561 172.63 155.347 172.84 156.307 172.84C157.375 172.84 158.221 172.528 158.845 171.904C159.469 171.268 159.805 170.356 159.853 169.168C159.097 169.924 158.053 170.302 156.721 170.302C155.917 170.302 155.185 170.14 154.525 169.816C153.865 169.492 153.343 169.036 152.959 168.448C152.575 167.848 152.383 167.158 152.383 166.378C152.383 165.538 152.593 164.8 153.013 164.164C153.433 163.528 154.003 163.042 154.723 162.706C155.455 162.358 156.265 162.184 157.153 162.184ZM157.369 168.124C158.005 168.124 158.521 167.95 158.917 167.602C159.325 167.242 159.529 166.786 159.529 166.234C159.529 165.682 159.331 165.232 158.935 164.884C158.551 164.536 158.017 164.362 157.333 164.362C156.709 164.362 156.199 164.53 155.803 164.866C155.419 165.202 155.227 165.658 155.227 166.234C155.227 166.81 155.419 167.272 155.803 167.62C156.199 167.956 156.721 168.124 157.369 168.124ZM172.808 168.376C173.432 168.688 173.906 169.096 174.23 169.6C174.566 170.104 174.734 170.686 174.734 171.346C174.734 172.126 174.512 172.81 174.068 173.398C173.624 173.974 173 174.424 172.196 174.748C171.392 175.06 170.462 175.216 169.406 175.216C168.35 175.216 167.42 175.06 166.616 174.748C165.824 174.424 165.206 173.974 164.762 173.398C164.33 172.81 164.114 172.126 164.114 171.346C164.114 170.686 164.276 170.104 164.6 169.6C164.936 169.096 165.41 168.688 166.022 168.376C165.554 168.088 165.194 167.728 164.942 167.296C164.69 166.852 164.564 166.348 164.564 165.784C164.564 165.052 164.768 164.416 165.176 163.876C165.584 163.336 166.154 162.922 166.886 162.634C167.618 162.334 168.458 162.184 169.406 162.184C170.366 162.184 171.212 162.334 171.944 162.634C172.688 162.922 173.264 163.336 173.672 163.876C174.08 164.416 174.284 165.052 174.284 165.784C174.284 166.348 174.158 166.852 173.906 167.296C173.654 167.728 173.288 168.088 172.808 168.376ZM169.406 164.326C168.818 164.326 168.344 164.47 167.984 164.758C167.636 165.034 167.462 165.418 167.462 165.91C167.462 166.39 167.636 166.768 167.984 167.044C168.332 167.32 168.806 167.458 169.406 167.458C170.006 167.458 170.486 167.32 170.846 167.044C171.206 166.768 171.386 166.39 171.386 165.91C171.386 165.418 171.206 165.034 170.846 164.758C170.486 164.47 170.006 164.326 169.406 164.326ZM169.406 173.074C170.138 173.074 170.714 172.912 171.134 172.588C171.566 172.252 171.782 171.808 171.782 171.256C171.782 170.704 171.566 170.266 171.134 169.942C170.714 169.618 170.138 169.456 169.406 169.456C168.686 169.456 168.116 169.618 167.696 169.942C167.276 170.266 167.066 170.704 167.066 171.256C167.066 171.82 167.276 172.264 167.696 172.588C168.116 172.912 168.686 173.074 169.406 173.074ZM178.809 169.204C177.885 169.204 177.129 168.892 176.541 168.268C175.965 167.632 175.677 166.786 175.677 165.73C175.677 164.674 175.965 163.834 176.541 163.21C177.129 162.574 177.885 162.256 178.809 162.256C179.733 162.256 180.483 162.574 181.059 163.21C181.635 163.834 181.923 164.674 181.923 165.73C181.923 166.786 181.635 167.632 181.059 168.268C180.483 168.892 179.733 169.204 178.809 169.204ZM186.315 162.4H188.457L179.853 175H177.711L186.315 162.4ZM178.809 167.728C179.217 167.728 179.535 167.56 179.763 167.224C180.003 166.888 180.123 166.39 180.123 165.73C180.123 165.07 180.003 164.572 179.763 164.236C179.535 163.9 179.217 163.732 178.809 163.732C178.413 163.732 178.095 163.906 177.855 164.254C177.615 164.59 177.495 165.082 177.495 165.73C177.495 166.378 177.615 166.876 177.855 167.224C178.095 167.56 178.413 167.728 178.809 167.728ZM187.359 175.144C186.759 175.144 186.219 175.006 185.739 174.73C185.271 174.442 184.905 174.034 184.641 173.506C184.377 172.978 184.245 172.366 184.245 171.67C184.245 170.974 184.377 170.362 184.641 169.834C184.905 169.306 185.271 168.904 185.739 168.628C186.219 168.34 186.759 168.196 187.359 168.196C188.283 168.196 189.033 168.514 189.609 169.15C190.197 169.774 190.491 170.614 190.491 171.67C190.491 172.726 190.197 173.572 189.609 174.208C189.033 174.832 188.283 175.144 187.359 175.144ZM187.359 173.668C187.767 173.668 188.085 173.5 188.313 173.164C188.553 172.816 188.673 172.318 188.673 171.67C188.673 171.022 188.553 170.53 188.313 170.194C188.085 169.846 187.767 169.672 187.359 169.672C186.963 169.672 186.645 169.84 186.405 170.176C186.165 170.512 186.045 171.01 186.045 171.67C186.045 172.33 186.165 172.828 186.405 173.164C186.645 173.5 186.963 173.668 187.359 173.668Z" fill="#89B37C"/>
<path d="M44.74 337.12C43.58 337.12 42.676 336.796 42.028 336.148C41.38 335.492 41.056 334.556 41.056 333.34V328.6H42.616V333.28C42.616 334.928 43.328 335.752 44.752 335.752C46.168 335.752 46.876 334.928 46.876 333.28V328.6H48.412V333.34C48.412 334.556 48.088 335.492 47.44 336.148C46.8 336.796 45.9 337.12 44.74 337.12ZM54.0888 330.52C54.8968 330.52 55.5448 330.756 56.0328 331.228C56.5208 331.7 56.7648 332.4 56.7648 333.328V337H55.2648V333.52C55.2648 332.96 55.1328 332.54 54.8688 332.26C54.6048 331.972 54.2288 331.828 53.7408 331.828C53.1888 331.828 52.7528 331.996 52.4328 332.332C52.1128 332.66 51.9528 333.136 51.9528 333.76V337H50.4528V330.592H51.8808V331.42C52.1288 331.124 52.4408 330.9 52.8168 330.748C53.1928 330.596 53.6168 330.52 54.0888 330.52ZM60.6476 337.084C60.1276 337.084 59.6196 337.016 59.1236 336.88C58.6276 336.744 58.2316 336.572 57.9356 336.364L58.5116 335.224C58.7996 335.416 59.1436 335.572 59.5436 335.692C59.9516 335.804 60.3516 335.86 60.7436 335.86C61.6396 335.86 62.0876 335.624 62.0876 335.152C62.0876 334.928 61.9716 334.772 61.7396 334.684C61.5156 334.596 61.1516 334.512 60.6476 334.432C60.1196 334.352 59.6876 334.26 59.3516 334.156C59.0236 334.052 58.7356 333.872 58.4876 333.616C58.2476 333.352 58.1276 332.988 58.1276 332.524C58.1276 331.916 58.3796 331.432 58.8836 331.072C59.3956 330.704 60.0836 330.52 60.9476 330.52C61.3876 330.52 61.8276 330.572 62.2676 330.676C62.7076 330.772 63.0676 330.904 63.3476 331.072L62.7716 332.212C62.2276 331.892 61.6156 331.732 60.9356 331.732C60.4956 331.732 60.1596 331.8 59.9276 331.936C59.7036 332.064 59.5916 332.236 59.5916 332.452C59.5916 332.692 59.7116 332.864 59.9516 332.968C60.1996 333.064 60.5796 333.156 61.0916 333.244C61.6036 333.324 62.0236 333.416 62.3516 333.52C62.6796 333.624 62.9596 333.8 63.1916 334.048C63.4316 334.296 63.5516 334.648 63.5516 335.104C63.5516 335.704 63.2916 336.184 62.7716 336.544C62.2516 336.904 61.5436 337.084 60.6476 337.084ZM71.0474 330.592V337H69.6194V336.184C69.3794 336.472 69.0794 336.696 68.7194 336.856C68.3594 337.008 67.9714 337.084 67.5554 337.084C66.6994 337.084 66.0234 336.848 65.5274 336.376C65.0394 335.896 64.7954 335.188 64.7954 334.252V330.592H66.2954V334.048C66.2954 334.624 66.4234 335.056 66.6794 335.344C66.9434 335.624 67.3154 335.764 67.7954 335.764C68.3314 335.764 68.7554 335.6 69.0674 335.272C69.3874 334.936 69.5474 334.456 69.5474 333.832V330.592H71.0474ZM75.9513 337.084C75.2873 337.084 74.6913 336.944 74.1633 336.664C73.6353 336.384 73.2233 335.996 72.9273 335.5C72.6313 334.996 72.4833 334.428 72.4833 333.796C72.4833 333.164 72.6313 332.6 72.9273 332.104C73.2233 331.608 73.6313 331.22 74.1513 330.94C74.6793 330.66 75.2793 330.52 75.9513 330.52C76.5833 330.52 77.1353 330.648 77.6073 330.904C78.0873 331.16 78.4473 331.528 78.6873 332.008L77.5353 332.68C77.3513 332.384 77.1193 332.164 76.8393 332.02C76.5673 331.868 76.2673 331.792 75.9393 331.792C75.3793 331.792 74.9153 331.976 74.5473 332.344C74.1793 332.704 73.9953 333.188 73.9953 333.796C73.9953 334.404 74.1753 334.892 74.5353 335.26C74.9033 335.62 75.3713 335.8 75.9393 335.8C76.2673 335.8 76.5673 335.728 76.8393 335.584C77.1193 335.432 77.3513 335.208 77.5353 334.912L78.6873 335.584C78.4393 336.064 78.0753 336.436 77.5953 336.7C77.1233 336.956 76.5753 337.084 75.9513 337.084ZM82.8303 337.084C82.1663 337.084 81.5703 336.944 81.0423 336.664C80.5143 336.384 80.1023 335.996 79.8063 335.5C79.5103 334.996 79.3623 334.428 79.3623 333.796C79.3623 333.164 79.5103 332.6 79.8063 332.104C80.1023 331.608 80.5103 331.22 81.0303 330.94C81.5583 330.66 82.1583 330.52 82.8303 330.52C83.4623 330.52 84.0143 330.648 84.4863 330.904C84.9663 331.16 85.3263 331.528 85.5663 332.008L84.4143 332.68C84.2303 332.384 83.9983 332.164 83.7183 332.02C83.4463 331.868 83.1463 331.792 82.8183 331.792C82.2583 331.792 81.7943 331.976 81.4263 332.344C81.0583 332.704 80.8743 333.188 80.8743 333.796C80.8743 334.404 81.0543 334.892 81.4143 335.26C81.7823 335.62 82.2503 335.8 82.8183 335.8C83.1463 335.8 83.4463 335.728 83.7183 335.584C83.9983 335.432 84.2303 335.208 84.4143 334.912L85.5663 335.584C85.3183 336.064 84.9543 336.436 84.4743 336.7C84.0023 336.956 83.4543 337.084 82.8303 337.084ZM92.7932 333.832C92.7932 333.936 92.7852 334.084 92.7692 334.276H87.7412C87.8292 334.748 88.0572 335.124 88.4252 335.404C88.8012 335.676 89.2652 335.812 89.8172 335.812C90.5212 335.812 91.1012 335.58 91.5572 335.116L92.3612 336.04C92.0732 336.384 91.7092 336.644 91.2692 336.82C90.8292 336.996 90.3332 337.084 89.7812 337.084C89.0772 337.084 88.4572 336.944 87.9212 336.664C87.3852 336.384 86.9692 335.996 86.6732 335.5C86.3852 334.996 86.2412 334.428 86.2412 333.796C86.2412 333.172 86.3812 332.612 86.6612 332.116C86.9492 331.612 87.3452 331.22 87.8492 330.94C88.3532 330.66 88.9212 330.52 89.5532 330.52C90.1772 330.52 90.7332 330.66 91.2212 330.94C91.7172 331.212 92.1012 331.6 92.3732 332.104C92.6532 332.6 92.7932 333.176 92.7932 333.832ZM89.5532 331.72C89.0732 331.72 88.6652 331.864 88.3292 332.152C88.0012 332.432 87.8012 332.808 87.7292 333.28H91.3652C91.3012 332.816 91.1052 332.44 90.7772 332.152C90.4492 331.864 90.0412 331.72 89.5532 331.72ZM96.214 337.084C95.694 337.084 95.186 337.016 94.69 336.88C94.194 336.744 93.798 336.572 93.502 336.364L94.078 335.224C94.366 335.416 94.71 335.572 95.11 335.692C95.518 335.804 95.918 335.86 96.31 335.86C97.206 335.86 97.654 335.624 97.654 335.152C97.654 334.928 97.538 334.772 97.306 334.684C97.082 334.596 96.718 334.512 96.214 334.432C95.686 334.352 95.254 334.26 94.918 334.156C94.59 334.052 94.302 333.872 94.054 333.616C93.814 333.352 93.694 332.988 93.694 332.524C93.694 331.916 93.946 331.432 94.45 331.072C94.962 330.704 95.65 330.52 96.514 330.52C96.954 330.52 97.394 330.572 97.834 330.676C98.274 330.772 98.634 330.904 98.914 331.072L98.338 332.212C97.794 331.892 97.182 331.732 96.502 331.732C96.062 331.732 95.726 331.8 95.494 331.936C95.27 332.064 95.158 332.236 95.158 332.452C95.158 332.692 95.278 332.864 95.518 332.968C95.766 333.064 96.146 333.156 96.658 333.244C97.17 333.324 97.59 333.416 97.918 333.52C98.246 333.624 98.526 333.8 98.758 334.048C98.998 334.296 99.118 334.648 99.118 335.104C99.118 335.704 98.858 336.184 98.338 336.544C97.818 336.904 97.11 337.084 96.214 337.084ZM102.39 337.084C101.87 337.084 101.362 337.016 100.866 336.88C100.37 336.744 99.9738 336.572 99.6778 336.364L100.254 335.224C100.542 335.416 100.886 335.572 101.286 335.692C101.694 335.804 102.094 335.86 102.486 335.86C103.382 335.86 103.83 335.624 103.83 335.152C103.83 334.928 103.714 334.772 103.482 334.684C103.258 334.596 102.894 334.512 102.39 334.432C101.862 334.352 101.43 334.26 101.094 334.156C100.766 334.052 100.478 333.872 100.23 333.616C99.9898 333.352 99.8698 332.988 99.8698 332.524C99.8698 331.916 100.122 331.432 100.626 331.072C101.138 330.704 101.826 330.52 102.69 330.52C103.13 330.52 103.57 330.572 104.01 330.676C104.45 330.772 104.81 330.904 105.09 331.072L104.514 332.212C103.97 331.892 103.358 331.732 102.678 331.732C102.238 331.732 101.902 331.8 101.67 331.936C101.446 332.064 101.334 332.236 101.334 332.452C101.334 332.692 101.454 332.864 101.694 332.968C101.942 333.064 102.322 333.156 102.834 333.244C103.346 333.324 103.766 333.416 104.094 333.52C104.422 333.624 104.702 333.8 104.934 334.048C105.174 334.296 105.294 334.648 105.294 335.104C105.294 335.704 105.034 336.184 104.514 336.544C103.994 336.904 103.286 337.084 102.39 337.084ZM109.19 329.224C108.558 329.224 108.242 329.568 108.242 330.256V330.64H110.006V331.84H108.29V337H106.79V331.84H105.734V330.64H106.79V330.232C106.79 329.544 106.99 329.004 107.39 328.612C107.79 328.212 108.354 328.012 109.082 328.012C109.658 328.012 110.11 328.128 110.438 328.36L110.018 329.488C109.762 329.312 109.486 329.224 109.19 329.224ZM117.219 330.592V337H115.791V336.184C115.551 336.472 115.251 336.696 114.891 336.856C114.531 337.008 114.143 337.084 113.727 337.084C112.871 337.084 112.195 336.848 111.699 336.376C111.211 335.896 110.967 335.188 110.967 334.252V330.592H112.467V334.048C112.467 334.624 112.595 335.056 112.851 335.344C113.115 335.624 113.487 335.764 113.967 335.764C114.503 335.764 114.927 335.6 115.239 335.272C115.559 334.936 115.719 334.456 115.719 333.832V330.592H117.219ZM119.183 328.096H120.683V337H119.183V328.096Z" fill="#828282"/>
<path d="M87.152 292.6V315H82.992V296.088H78.256V292.6H87.152Z" fill="#333333"/>
<rect x="40" y="293" width="22" height="22" rx="8" fill="#DFEEDB"/>
<path d="M211.732 337.12C211.084 337.12 210.456 337.028 209.848 336.844C209.248 336.66 208.772 336.416 208.42 336.112L208.96 334.9C209.304 335.172 209.724 335.396 210.22 335.572C210.724 335.74 211.228 335.824 211.732 335.824C212.356 335.824 212.82 335.724 213.124 335.524C213.436 335.324 213.592 335.06 213.592 334.732C213.592 334.492 213.504 334.296 213.328 334.144C213.16 333.984 212.944 333.86 212.68 333.772C212.416 333.684 212.056 333.584 211.6 333.472C210.96 333.32 210.44 333.168 210.04 333.016C209.648 332.864 209.308 332.628 209.02 332.308C208.74 331.98 208.6 331.54 208.6 330.988C208.6 330.524 208.724 330.104 208.972 329.728C209.228 329.344 209.608 329.04 210.112 328.816C210.624 328.592 211.248 328.48 211.984 328.48C212.496 328.48 213 328.544 213.496 328.672C213.992 328.8 214.42 328.984 214.78 329.224L214.288 330.436C213.92 330.22 213.536 330.056 213.136 329.944C212.736 329.832 212.348 329.776 211.972 329.776C211.356 329.776 210.896 329.88 210.592 330.088C210.296 330.296 210.148 330.572 210.148 330.916C210.148 331.156 210.232 331.352 210.4 331.504C210.576 331.656 210.796 331.776 211.06 331.864C211.324 331.952 211.684 332.052 212.14 332.164C212.764 332.308 213.276 332.46 213.676 332.62C214.076 332.772 214.416 333.008 214.696 333.328C214.984 333.648 215.128 334.08 215.128 334.624C215.128 335.088 215 335.508 214.744 335.884C214.496 336.26 214.116 336.56 213.604 336.784C213.092 337.008 212.468 337.12 211.732 337.12ZM222.735 330.592V337H221.307V336.184C221.067 336.472 220.767 336.696 220.407 336.856C220.047 337.008 219.659 337.084 219.243 337.084C218.387 337.084 217.711 336.848 217.215 336.376C216.727 335.896 216.483 335.188 216.483 334.252V330.592H217.983V334.048C217.983 334.624 218.111 335.056 218.367 335.344C218.631 335.624 219.003 335.764 219.483 335.764C220.019 335.764 220.443 335.6 220.755 335.272C221.075 334.936 221.235 334.456 221.235 333.832V330.592H222.735ZM227.639 337.084C226.975 337.084 226.379 336.944 225.851 336.664C225.323 336.384 224.911 335.996 224.615 335.5C224.319 334.996 224.171 334.428 224.171 333.796C224.171 333.164 224.319 332.6 224.615 332.104C224.911 331.608 225.319 331.22 225.839 330.94C226.367 330.66 226.967 330.52 227.639 330.52C228.271 330.52 228.823 330.648 229.295 330.904C229.775 331.16 230.135 331.528 230.375 332.008L229.223 332.68C229.039 332.384 228.807 332.164 228.527 332.02C228.255 331.868 227.955 331.792 227.627 331.792C227.067 331.792 226.603 331.976 226.235 332.344C225.867 332.704 225.683 333.188 225.683 333.796C225.683 334.404 225.863 334.892 226.223 335.26C226.591 335.62 227.059 335.8 227.627 335.8C227.955 335.8 228.255 335.728 228.527 335.584C228.807 335.432 229.039 335.208 229.223 334.912L230.375 335.584C230.127 336.064 229.763 336.436 229.283 336.7C228.811 336.956 228.263 337.084 227.639 337.084ZM234.518 337.084C233.854 337.084 233.258 336.944 232.73 336.664C232.202 336.384 231.79 335.996 231.494 335.5C231.198 334.996 231.05 334.428 231.05 333.796C231.05 333.164 231.198 332.6 231.494 332.104C231.79 331.608 232.198 331.22 232.718 330.94C233.246 330.66 233.846 330.52 234.518 330.52C235.15 330.52 235.702 330.648 236.174 330.904C236.654 331.16 237.014 331.528 237.254 332.008L236.102 332.68C235.918 332.384 235.686 332.164 235.406 332.02C235.134 331.868 234.834 331.792 234.506 331.792C233.946 331.792 233.482 331.976 233.114 332.344C232.746 332.704 232.562 333.188 232.562 333.796C232.562 334.404 232.742 334.892 233.102 335.26C233.47 335.62 233.938 335.8 234.506 335.8C234.834 335.8 235.134 335.728 235.406 335.584C235.686 335.432 235.918 335.208 236.102 334.912L237.254 335.584C237.006 336.064 236.642 336.436 236.162 336.7C235.69 336.956 235.142 337.084 234.518 337.084ZM244.481 333.832C244.481 333.936 244.473 334.084 244.457 334.276H239.429C239.517 334.748 239.745 335.124 240.113 335.404C240.489 335.676 240.953 335.812 241.505 335.812C242.209 335.812 242.789 335.58 243.245 335.116L244.049 336.04C243.761 336.384 243.397 336.644 242.957 336.82C242.517 336.996 242.021 337.084 241.469 337.084C240.765 337.084 240.145 336.944 239.609 336.664C239.073 336.384 238.657 335.996 238.361 335.5C238.073 334.996 237.929 334.428 237.929 333.796C237.929 333.172 238.069 332.612 238.349 332.116C238.637 331.612 239.033 331.22 239.537 330.94C240.041 330.66 240.609 330.52 241.241 330.52C241.865 330.52 242.421 330.66 242.909 330.94C243.405 331.212 243.789 331.6 244.061 332.104C244.341 332.6 244.481 333.176 244.481 333.832ZM241.241 331.72C240.761 331.72 240.353 331.864 240.017 332.152C239.689 332.432 239.489 332.808 239.417 333.28H243.053C242.989 332.816 242.793 332.44 242.465 332.152C242.137 331.864 241.729 331.72 241.241 331.72ZM247.902 337.084C247.382 337.084 246.874 337.016 246.378 336.88C245.882 336.744 245.486 336.572 245.19 336.364L245.766 335.224C246.054 335.416 246.398 335.572 246.798 335.692C247.206 335.804 247.606 335.86 247.998 335.86C248.894 335.86 249.342 335.624 249.342 335.152C249.342 334.928 249.226 334.772 248.994 334.684C248.77 334.596 248.406 334.512 247.902 334.432C247.374 334.352 246.942 334.26 246.606 334.156C246.278 334.052 245.99 333.872 245.742 333.616C245.502 333.352 245.382 332.988 245.382 332.524C245.382 331.916 245.634 331.432 246.138 331.072C246.65 330.704 247.338 330.52 248.202 330.52C248.642 330.52 249.082 330.572 249.522 330.676C249.962 330.772 250.322 330.904 250.602 331.072L250.026 332.212C249.482 331.892 248.87 331.732 248.19 331.732C247.75 331.732 247.414 331.8 247.182 331.936C246.958 332.064 246.846 332.236 246.846 332.452C246.846 332.692 246.966 332.864 247.206 332.968C247.454 333.064 247.834 333.156 248.346 333.244C248.858 333.324 249.278 333.416 249.606 333.52C249.934 333.624 250.214 333.8 250.446 334.048C250.686 334.296 250.806 334.648 250.806 335.104C250.806 335.704 250.546 336.184 250.026 336.544C249.506 336.904 248.798 337.084 247.902 337.084ZM254.077 337.084C253.557 337.084 253.049 337.016 252.553 336.88C252.057 336.744 251.661 336.572 251.365 336.364L251.941 335.224C252.229 335.416 252.573 335.572 252.973 335.692C253.381 335.804 253.781 335.86 254.173 335.86C255.069 335.86 255.517 335.624 255.517 335.152C255.517 334.928 255.401 334.772 255.169 334.684C254.945 334.596 254.581 334.512 254.077 334.432C253.549 334.352 253.117 334.26 252.781 334.156C252.453 334.052 252.165 333.872 251.917 333.616C251.677 333.352 251.557 332.988 251.557 332.524C251.557 331.916 251.809 331.432 252.313 331.072C252.825 330.704 253.513 330.52 254.377 330.52C254.817 330.52 255.257 330.572 255.697 330.676C256.137 330.772 256.497 330.904 256.777 331.072L256.201 332.212C255.657 331.892 255.045 331.732 254.365 331.732C253.925 331.732 253.589 331.8 253.357 331.936C253.133 332.064 253.021 332.236 253.021 332.452C253.021 332.692 253.141 332.864 253.381 332.968C253.629 333.064 254.009 333.156 254.521 333.244C255.033 333.324 255.453 333.416 255.781 333.52C256.109 333.624 256.389 333.8 256.621 334.048C256.861 334.296 256.981 334.648 256.981 335.104C256.981 335.704 256.721 336.184 256.201 336.544C255.681 336.904 254.973 337.084 254.077 337.084ZM260.877 329.224C260.245 329.224 259.929 329.568 259.929 330.256V330.64H261.693V331.84H259.977V337H258.477V331.84H257.421V330.64H258.477V330.232C258.477 329.544 258.677 329.004 259.077 328.612C259.477 328.212 260.041 328.012 260.769 328.012C261.345 328.012 261.797 328.128 262.125 328.36L261.705 329.488C261.449 329.312 261.173 329.224 260.877 329.224ZM268.907 330.592V337H267.479V336.184C267.239 336.472 266.939 336.696 266.579 336.856C266.219 337.008 265.831 337.084 265.415 337.084C264.559 337.084 263.883 336.848 263.387 336.376C262.899 335.896 262.655 335.188 262.655 334.252V330.592H264.155V334.048C264.155 334.624 264.283 335.056 264.539 335.344C264.803 335.624 265.175 335.764 265.655 335.764C266.191 335.764 266.615 335.6 266.927 335.272C267.247 334.936 267.407 334.456 267.407 333.832V330.592H268.907ZM270.871 328.096H272.371V337H270.871V328.096Z" fill="#828282"/>
<path d="M249.152 292.6V315H244.992V296.088H240.256V292.6H249.152ZM260.604 301.272C263.761 301.272 266.097 301.891 267.612 303.128C269.126 304.344 269.884 306.008 269.884 308.12C269.884 309.464 269.553 310.68 268.892 311.768C268.23 312.856 267.238 313.72 265.916 314.36C264.593 315 262.961 315.32 261.02 315.32C259.42 315.32 257.873 315.096 256.38 314.648C254.886 314.179 253.628 313.539 252.604 312.728L254.364 309.496C255.196 310.179 256.188 310.723 257.34 311.128C258.513 311.512 259.718 311.704 260.956 311.704C262.428 311.704 263.58 311.405 264.412 310.808C265.265 310.189 265.692 309.347 265.692 308.28C265.692 307.128 265.233 306.264 264.316 305.688C263.42 305.091 261.873 304.792 259.676 304.792H254.268L255.42 292.6H268.572V296.088H258.94L258.46 301.272H260.604ZM281.627 315.32C279.835 315.32 278.235 314.872 276.827 313.976C275.419 313.059 274.31 311.736 273.499 310.008C272.688 308.259 272.283 306.189 272.283 303.8C272.283 301.411 272.688 299.352 273.499 297.624C274.31 295.875 275.419 294.552 276.827 293.656C278.235 292.739 279.835 292.28 281.627 292.28C283.419 292.28 285.019 292.739 286.427 293.656C287.856 294.552 288.976 295.875 289.787 297.624C290.598 299.352 291.003 301.411 291.003 303.8C291.003 306.189 290.598 308.259 289.787 310.008C288.976 311.736 287.856 313.059 286.427 313.976C285.019 314.872 283.419 315.32 281.627 315.32ZM281.627 311.704C283.227 311.704 284.486 311.043 285.403 309.72C286.342 308.397 286.811 306.424 286.811 303.8C286.811 301.176 286.342 299.203 285.403 297.88C284.486 296.557 283.227 295.896 281.627 295.896C280.048 295.896 278.79 296.557 277.851 297.88C276.934 299.203 276.475 301.176 276.475 303.8C276.475 306.424 276.934 308.397 277.851 309.72C278.79 311.043 280.048 311.704 281.627 311.704Z" fill="#333333"/>
<rect x="208" y="293" width="22" height="22" rx="8" fill="#A6D997"/>
</svg>
