<svg width="344" height="364" viewBox="0 0 344 364" fill="none" xmlns="http://www.w3.org/2000/svg">
<rect x="0.5" y="0.5" width="343" height="363" rx="39.5" stroke="#F2F2F2"/>
<rect x="40" y="318" width="22" height="22" rx="8" fill="#80E0E6"/>
<path d="M51.636 326C52.444 326 53.092 326.236 53.58 326.708C54.068 327.18 54.312 327.88 54.312 328.808V332.48H52.812V329C52.812 328.44 52.68 328.02 52.416 327.74C52.152 327.452 51.776 327.308 51.288 327.308C50.736 327.308 50.3 327.476 49.98 327.812C49.66 328.14 49.5 328.616 49.5 329.24V332.48H48V326.072H49.428V326.9C49.676 326.604 49.988 326.38 50.364 326.228C50.74 326.076 51.164 326 51.636 326Z" fill="white"/>
<path d="M81.732 332.12C81.084 332.12 80.456 332.028 79.848 331.844C79.248 331.66 78.772 331.416 78.42 331.112L78.96 329.9C79.304 330.172 79.724 330.396 80.22 330.572C80.724 330.74 81.228 330.824 81.732 330.824C82.356 330.824 82.82 330.724 83.124 330.524C83.436 330.324 83.592 330.06 83.592 329.732C83.592 329.492 83.504 329.296 83.328 329.144C83.16 328.984 82.944 328.86 82.68 328.772C82.416 328.684 82.056 328.584 81.6 328.472C80.96 328.32 80.44 328.168 80.04 328.016C79.648 327.864 79.308 327.628 79.02 327.308C78.74 326.98 78.6 326.54 78.6 325.988C78.6 325.524 78.724 325.104 78.972 324.728C79.228 324.344 79.608 324.04 80.112 323.816C80.624 323.592 81.248 323.48 81.984 323.48C82.496 323.48 83 323.544 83.496 323.672C83.992 323.8 84.42 323.984 84.78 324.224L84.288 325.436C83.92 325.22 83.536 325.056 83.136 324.944C82.736 324.832 82.348 324.776 81.972 324.776C81.356 324.776 80.896 324.88 80.592 325.088C80.296 325.296 80.148 325.572 80.148 325.916C80.148 326.156 80.232 326.352 80.4 326.504C80.576 326.656 80.796 326.776 81.06 326.864C81.324 326.952 81.684 327.052 82.14 327.164C82.764 327.308 83.276 327.46 83.676 327.62C84.076 327.772 84.416 328.008 84.696 328.328C84.984 328.648 85.128 329.08 85.128 329.624C85.128 330.088 85 330.508 84.744 330.884C84.496 331.26 84.116 331.56 83.604 331.784C83.092 332.008 82.468 332.12 81.732 332.12ZM92.4137 325.592L89.4137 332.516C89.1337 333.212 88.7937 333.7 88.3937 333.98C87.9937 334.268 87.5097 334.412 86.9417 334.412C86.6217 334.412 86.3057 334.36 85.9937 334.256C85.6817 334.152 85.4257 334.008 85.2257 333.824L85.8257 332.72C85.9697 332.856 86.1377 332.964 86.3297 333.044C86.5297 333.124 86.7297 333.164 86.9297 333.164C87.1937 333.164 87.4097 333.096 87.5777 332.96C87.7537 332.824 87.9137 332.596 88.0577 332.276L88.1657 332.024L85.3697 325.592H86.9297L88.9457 330.332L90.9737 325.592H92.4137ZM95.2492 332.084C94.7292 332.084 94.2212 332.016 93.7252 331.88C93.2292 331.744 92.8332 331.572 92.5372 331.364L93.1132 330.224C93.4012 330.416 93.7452 330.572 94.1452 330.692C94.5532 330.804 94.9532 330.86 95.3452 330.86C96.2412 330.86 96.6892 330.624 96.6892 330.152C96.6892 329.928 96.5732 329.772 96.3412 329.684C96.1172 329.596 95.7532 329.512 95.2492 329.432C94.7212 329.352 94.2892 329.26 93.9532 329.156C93.6252 329.052 93.3372 328.872 93.0892 328.616C92.8492 328.352 92.7292 327.988 92.7292 327.524C92.7292 326.916 92.9812 326.432 93.4852 326.072C93.9972 325.704 94.6852 325.52 95.5492 325.52C95.9892 325.52 96.4292 325.572 96.8692 325.676C97.3092 325.772 97.6692 325.904 97.9492 326.072L97.3732 327.212C96.8292 326.892 96.2172 326.732 95.5372 326.732C95.0972 326.732 94.7612 326.8 94.5292 326.936C94.3052 327.064 94.1932 327.236 94.1932 327.452C94.1932 327.692 94.3132 327.864 94.5532 327.968C94.8012 328.064 95.1812 328.156 95.6932 328.244C96.2052 328.324 96.6252 328.416 96.9532 328.52C97.2812 328.624 97.5612 328.8 97.7932 329.048C98.0332 329.296 98.1532 329.648 98.1532 330.104C98.1532 330.704 97.8932 331.184 97.3732 331.544C96.8532 331.904 96.1452 332.084 95.2492 332.084ZM103.297 331.652C103.121 331.796 102.905 331.904 102.649 331.976C102.401 332.048 102.137 332.084 101.857 332.084C101.153 332.084 100.609 331.9 100.225 331.532C99.8409 331.164 99.6489 330.628 99.6489 329.924V326.84H98.5929V325.64H99.6489V324.176H101.149V325.64H102.865V326.84H101.149V329.888C101.149 330.2 101.225 330.44 101.377 330.608C101.529 330.768 101.749 330.848 102.037 330.848C102.373 330.848 102.653 330.76 102.877 330.584L103.297 331.652ZM110.344 328.832C110.344 328.936 110.336 329.084 110.32 329.276H105.292C105.38 329.748 105.608 330.124 105.976 330.404C106.352 330.676 106.816 330.812 107.368 330.812C108.072 330.812 108.652 330.58 109.108 330.116L109.912 331.04C109.624 331.384 109.26 331.644 108.82 331.82C108.38 331.996 107.884 332.084 107.332 332.084C106.628 332.084 106.008 331.944 105.472 331.664C104.936 331.384 104.52 330.996 104.224 330.5C103.936 329.996 103.792 329.428 103.792 328.796C103.792 328.172 103.932 327.612 104.212 327.116C104.5 326.612 104.896 326.22 105.4 325.94C105.904 325.66 106.472 325.52 107.104 325.52C107.728 325.52 108.284 325.66 108.772 325.94C109.268 326.212 109.652 326.6 109.924 327.104C110.204 327.6 110.344 328.176 110.344 328.832ZM107.104 326.72C106.624 326.72 106.216 326.864 105.88 327.152C105.552 327.432 105.352 327.808 105.28 328.28H108.916C108.852 327.816 108.656 327.44 108.328 327.152C108 326.864 107.592 326.72 107.104 326.72ZM119.873 325.52C120.681 325.52 121.321 325.756 121.793 326.228C122.265 326.692 122.501 327.392 122.501 328.328V332H121.001V328.52C121.001 327.96 120.877 327.54 120.629 327.26C120.381 326.972 120.025 326.828 119.561 326.828C119.057 326.828 118.653 326.996 118.349 327.332C118.045 327.66 117.893 328.132 117.893 328.748V332H116.393V328.52C116.393 327.96 116.269 327.54 116.021 327.26C115.773 326.972 115.417 326.828 114.953 326.828C114.441 326.828 114.033 326.992 113.729 327.32C113.433 327.648 113.285 328.124 113.285 328.748V332H111.785V325.592H113.213V326.408C113.453 326.12 113.753 325.9 114.113 325.748C114.473 325.596 114.873 325.52 115.313 325.52C115.793 325.52 116.217 325.612 116.585 325.796C116.961 325.972 117.257 326.236 117.473 326.588C117.737 326.252 118.077 325.992 118.493 325.808C118.909 325.616 119.369 325.52 119.873 325.52ZM133.758 328.832C133.758 328.936 133.75 329.084 133.734 329.276H128.706C128.794 329.748 129.022 330.124 129.39 330.404C129.766 330.676 130.23 330.812 130.782 330.812C131.486 330.812 132.066 330.58 132.522 330.116L133.326 331.04C133.038 331.384 132.674 331.644 132.234 331.82C131.794 331.996 131.298 332.084 130.746 332.084C130.042 332.084 129.422 331.944 128.886 331.664C128.35 331.384 127.934 330.996 127.638 330.5C127.35 329.996 127.206 329.428 127.206 328.796C127.206 328.172 127.346 327.612 127.626 327.116C127.914 326.612 128.31 326.22 128.814 325.94C129.318 325.66 129.886 325.52 130.518 325.52C131.142 325.52 131.698 325.66 132.186 325.94C132.682 326.212 133.066 326.6 133.338 327.104C133.618 327.6 133.758 328.176 133.758 328.832ZM130.518 326.72C130.038 326.72 129.63 326.864 129.294 327.152C128.966 327.432 128.766 327.808 128.694 328.28H132.33C132.266 327.816 132.07 327.44 131.742 327.152C131.414 326.864 131.006 326.72 130.518 326.72ZM136.627 326.528C137.059 325.856 137.819 325.52 138.907 325.52V326.948C138.779 326.924 138.663 326.912 138.559 326.912C137.975 326.912 137.519 327.084 137.191 327.428C136.863 327.764 136.699 328.252 136.699 328.892V332H135.199V325.592H136.627V326.528ZM141.607 326.528C142.039 325.856 142.799 325.52 143.887 325.52V326.948C143.759 326.924 143.643 326.912 143.539 326.912C142.955 326.912 142.499 327.084 142.171 327.428C141.843 327.764 141.679 328.252 141.679 328.892V332H140.179V325.592H141.607V326.528ZM147.981 332.084C147.333 332.084 146.749 331.944 146.229 331.664C145.709 331.384 145.301 330.996 145.005 330.5C144.717 329.996 144.573 329.428 144.573 328.796C144.573 328.164 144.717 327.6 145.005 327.104C145.301 326.608 145.709 326.22 146.229 325.94C146.749 325.66 147.333 325.52 147.981 325.52C148.637 325.52 149.225 325.66 149.745 325.94C150.265 326.22 150.669 326.608 150.957 327.104C151.253 327.6 151.401 328.164 151.401 328.796C151.401 329.428 151.253 329.996 150.957 330.5C150.669 330.996 150.265 331.384 149.745 331.664C149.225 331.944 148.637 332.084 147.981 332.084ZM147.981 330.8C148.533 330.8 148.989 330.616 149.349 330.248C149.709 329.88 149.889 329.396 149.889 328.796C149.889 328.196 149.709 327.712 149.349 327.344C148.989 326.976 148.533 326.792 147.981 326.792C147.429 326.792 146.973 326.976 146.613 327.344C146.261 327.712 146.085 328.196 146.085 328.796C146.085 329.396 146.261 329.88 146.613 330.248C146.973 330.616 147.429 330.8 147.981 330.8ZM154.264 326.528C154.696 325.856 155.456 325.52 156.544 325.52V326.948C156.416 326.924 156.3 326.912 156.196 326.912C155.612 326.912 155.156 327.084 154.828 327.428C154.5 327.764 154.336 328.252 154.336 328.892V332H152.836V325.592H154.264V326.528ZM159.819 332.084C159.299 332.084 158.791 332.016 158.295 331.88C157.799 331.744 157.403 331.572 157.107 331.364L157.683 330.224C157.971 330.416 158.315 330.572 158.715 330.692C159.123 330.804 159.523 330.86 159.915 330.86C160.811 330.86 161.259 330.624 161.259 330.152C161.259 329.928 161.143 329.772 160.911 329.684C160.687 329.596 160.323 329.512 159.819 329.432C159.291 329.352 158.859 329.26 158.523 329.156C158.195 329.052 157.907 328.872 157.659 328.616C157.419 328.352 157.299 327.988 157.299 327.524C157.299 326.916 157.551 326.432 158.055 326.072C158.567 325.704 159.255 325.52 160.119 325.52C160.559 325.52 160.999 325.572 161.439 325.676C161.879 325.772 162.239 325.904 162.519 326.072L161.943 327.212C161.399 326.892 160.787 326.732 160.107 326.732C159.667 326.732 159.331 326.8 159.099 326.936C158.875 327.064 158.763 327.236 158.763 327.452C158.763 327.692 158.883 327.864 159.123 327.968C159.371 328.064 159.751 328.156 160.263 328.244C160.775 328.324 161.195 328.416 161.523 328.52C161.851 328.624 162.131 328.8 162.363 329.048C162.603 329.296 162.723 329.648 162.723 330.104C162.723 330.704 162.463 331.184 161.943 331.544C161.423 331.904 160.715 332.084 159.819 332.084Z" fill="#828282"/>
<path d="M83.016 243.12C82.168 243.12 81.4 242.936 80.712 242.568C80.032 242.192 79.496 241.676 79.104 241.02C78.72 240.364 78.528 239.624 78.528 238.8C78.528 237.976 78.724 237.236 79.116 236.58C79.508 235.924 80.044 235.412 80.724 235.044C81.412 234.668 82.18 234.48 83.028 234.48C83.716 234.48 84.344 234.6 84.912 234.84C85.48 235.08 85.96 235.428 86.352 235.884L85.344 236.832C84.736 236.176 83.988 235.848 83.1 235.848C82.524 235.848 82.008 235.976 81.552 236.232C81.096 236.48 80.74 236.828 80.484 237.276C80.228 237.724 80.1 238.232 80.1 238.8C80.1 239.368 80.228 239.876 80.484 240.324C80.74 240.772 81.096 241.124 81.552 241.38C82.008 241.628 82.524 241.752 83.1 241.752C83.988 241.752 84.736 241.42 85.344 240.756L86.352 241.716C85.96 242.172 85.476 242.52 84.9 242.76C84.332 243 83.704 243.12 83.016 243.12ZM93.731 236.592V243H92.303V242.184C92.063 242.472 91.763 242.696 91.403 242.856C91.043 243.008 90.655 243.084 90.239 243.084C89.383 243.084 88.707 242.848 88.211 242.376C87.723 241.896 87.479 241.188 87.479 240.252V236.592H88.979V240.048C88.979 240.624 89.107 241.056 89.363 241.344C89.627 241.624 89.999 241.764 90.479 241.764C91.015 241.764 91.439 241.6 91.751 241.272C92.071 240.936 92.231 240.456 92.231 239.832V236.592H93.731ZM97.6749 243.084C97.1549 243.084 96.6469 243.016 96.1509 242.88C95.6549 242.744 95.2589 242.572 94.9629 242.364L95.5389 241.224C95.8269 241.416 96.1709 241.572 96.5709 241.692C96.9789 241.804 97.3789 241.86 97.7709 241.86C98.6669 241.86 99.1149 241.624 99.1149 241.152C99.1149 240.928 98.9989 240.772 98.7669 240.684C98.5429 240.596 98.1789 240.512 97.6749 240.432C97.1469 240.352 96.7149 240.26 96.3789 240.156C96.0509 240.052 95.7629 239.872 95.5149 239.616C95.2749 239.352 95.1549 238.988 95.1549 238.524C95.1549 237.916 95.4069 237.432 95.9109 237.072C96.4229 236.704 97.1109 236.52 97.9749 236.52C98.4149 236.52 98.8549 236.572 99.2949 236.676C99.7349 236.772 100.095 236.904 100.375 237.072L99.7989 238.212C99.2549 237.892 98.6429 237.732 97.9629 237.732C97.5229 237.732 97.1869 237.8 96.9549 237.936C96.7309 238.064 96.6189 238.236 96.6189 238.452C96.6189 238.692 96.7389 238.864 96.9789 238.968C97.2269 239.064 97.6069 239.156 98.1189 239.244C98.6309 239.324 99.0509 239.416 99.3789 239.52C99.7069 239.624 99.9869 239.8 100.219 240.048C100.459 240.296 100.579 240.648 100.579 241.104C100.579 241.704 100.319 242.184 99.7989 242.544C99.2789 242.904 98.5709 243.084 97.6749 243.084ZM105.723 242.652C105.547 242.796 105.331 242.904 105.075 242.976C104.827 243.048 104.563 243.084 104.283 243.084C103.579 243.084 103.035 242.9 102.651 242.532C102.267 242.164 102.075 241.628 102.075 240.924V237.84H101.019V236.64H102.075V235.176H103.575V236.64H105.291V237.84H103.575V240.888C103.575 241.2 103.651 241.44 103.803 241.608C103.955 241.768 104.175 241.848 104.463 241.848C104.799 241.848 105.079 241.76 105.303 241.584L105.723 242.652ZM109.626 243.084C108.978 243.084 108.394 242.944 107.874 242.664C107.354 242.384 106.946 241.996 106.65 241.5C106.362 240.996 106.218 240.428 106.218 239.796C106.218 239.164 106.362 238.6 106.65 238.104C106.946 237.608 107.354 237.22 107.874 236.94C108.394 236.66 108.978 236.52 109.626 236.52C110.282 236.52 110.87 236.66 111.39 236.94C111.91 237.22 112.314 237.608 112.602 238.104C112.898 238.6 113.046 239.164 113.046 239.796C113.046 240.428 112.898 240.996 112.602 241.5C112.314 241.996 111.91 242.384 111.39 242.664C110.87 242.944 110.282 243.084 109.626 243.084ZM109.626 241.8C110.178 241.8 110.634 241.616 110.994 241.248C111.354 240.88 111.534 240.396 111.534 239.796C111.534 239.196 111.354 238.712 110.994 238.344C110.634 237.976 110.178 237.792 109.626 237.792C109.074 237.792 108.618 237.976 108.258 238.344C107.906 238.712 107.73 239.196 107.73 239.796C107.73 240.396 107.906 240.88 108.258 241.248C108.618 241.616 109.074 241.8 109.626 241.8ZM122.568 236.52C123.376 236.52 124.016 236.756 124.488 237.228C124.96 237.692 125.196 238.392 125.196 239.328V243H123.696V239.52C123.696 238.96 123.572 238.54 123.324 238.26C123.076 237.972 122.72 237.828 122.256 237.828C121.752 237.828 121.348 237.996 121.044 238.332C120.74 238.66 120.588 239.132 120.588 239.748V243H119.088V239.52C119.088 238.96 118.964 238.54 118.716 238.26C118.468 237.972 118.112 237.828 117.648 237.828C117.136 237.828 116.728 237.992 116.424 238.32C116.128 238.648 115.98 239.124 115.98 239.748V243H114.48V236.592H115.908V237.408C116.148 237.12 116.448 236.9 116.808 236.748C117.168 236.596 117.568 236.52 118.008 236.52C118.488 236.52 118.912 236.612 119.28 236.796C119.656 236.972 119.952 237.236 120.168 237.588C120.432 237.252 120.772 236.992 121.188 236.808C121.604 236.616 122.064 236.52 122.568 236.52ZM133.196 239.832C133.196 239.936 133.188 240.084 133.172 240.276H128.144C128.232 240.748 128.46 241.124 128.828 241.404C129.204 241.676 129.668 241.812 130.22 241.812C130.924 241.812 131.504 241.58 131.96 241.116L132.764 242.04C132.476 242.384 132.112 242.644 131.672 242.82C131.232 242.996 130.736 243.084 130.184 243.084C129.48 243.084 128.86 242.944 128.324 242.664C127.788 242.384 127.372 241.996 127.076 241.5C126.788 240.996 126.644 240.428 126.644 239.796C126.644 239.172 126.784 238.612 127.064 238.116C127.352 237.612 127.748 237.22 128.252 236.94C128.756 236.66 129.324 236.52 129.956 236.52C130.58 236.52 131.136 236.66 131.624 236.94C132.12 237.212 132.504 237.6 132.776 238.104C133.056 238.6 133.196 239.176 133.196 239.832ZM129.956 237.72C129.476 237.72 129.068 237.864 128.732 238.152C128.404 238.432 128.204 238.808 128.132 239.28H131.768C131.704 238.816 131.508 238.44 131.18 238.152C130.852 237.864 130.444 237.72 129.956 237.72ZM136.064 237.528C136.496 236.856 137.256 236.52 138.344 236.52V237.948C138.216 237.924 138.1 237.912 137.996 237.912C137.412 237.912 136.956 238.084 136.628 238.428C136.3 238.764 136.136 239.252 136.136 239.892V243H134.636V236.592H136.064V237.528ZM149.016 239.832C149.016 239.936 149.008 240.084 148.992 240.276H143.964C144.052 240.748 144.28 241.124 144.648 241.404C145.024 241.676 145.488 241.812 146.04 241.812C146.744 241.812 147.324 241.58 147.78 241.116L148.584 242.04C148.296 242.384 147.932 242.644 147.492 242.82C147.052 242.996 146.556 243.084 146.004 243.084C145.3 243.084 144.68 242.944 144.144 242.664C143.608 242.384 143.192 241.996 142.896 241.5C142.608 240.996 142.464 240.428 142.464 239.796C142.464 239.172 142.604 238.612 142.884 238.116C143.172 237.612 143.568 237.22 144.072 236.94C144.576 236.66 145.144 236.52 145.776 236.52C146.4 236.52 146.956 236.66 147.444 236.94C147.94 237.212 148.324 237.6 148.596 238.104C148.876 238.6 149.016 239.176 149.016 239.832ZM145.776 237.72C145.296 237.72 144.888 237.864 144.552 238.152C144.224 238.432 144.024 238.808 143.952 239.28H147.588C147.524 238.816 147.328 238.44 147 238.152C146.672 237.864 146.264 237.72 145.776 237.72ZM151.885 237.528C152.317 236.856 153.077 236.52 154.165 236.52V237.948C154.037 237.924 153.921 237.912 153.817 237.912C153.233 237.912 152.777 238.084 152.449 238.428C152.121 238.764 151.957 239.252 151.957 239.892V243H150.457V236.592H151.885V237.528ZM156.865 237.528C157.297 236.856 158.057 236.52 159.145 236.52V237.948C159.017 237.924 158.901 237.912 158.797 237.912C158.213 237.912 157.757 238.084 157.429 238.428C157.101 238.764 156.937 239.252 156.937 239.892V243H155.437V236.592H156.865V237.528ZM163.239 243.084C162.591 243.084 162.007 242.944 161.487 242.664C160.967 242.384 160.559 241.996 160.263 241.5C159.975 240.996 159.831 240.428 159.831 239.796C159.831 239.164 159.975 238.6 160.263 238.104C160.559 237.608 160.967 237.22 161.487 236.94C162.007 236.66 162.591 236.52 163.239 236.52C163.895 236.52 164.483 236.66 165.003 236.94C165.523 237.22 165.927 237.608 166.215 238.104C166.511 238.6 166.659 239.164 166.659 239.796C166.659 240.428 166.511 240.996 166.215 241.5C165.927 241.996 165.523 242.384 165.003 242.664C164.483 242.944 163.895 243.084 163.239 243.084ZM163.239 241.8C163.791 241.8 164.247 241.616 164.607 241.248C164.967 240.88 165.147 240.396 165.147 239.796C165.147 239.196 164.967 238.712 164.607 238.344C164.247 237.976 163.791 237.792 163.239 237.792C162.687 237.792 162.231 237.976 161.871 238.344C161.519 238.712 161.343 239.196 161.343 239.796C161.343 240.396 161.519 240.88 161.871 241.248C162.231 241.616 162.687 241.8 163.239 241.8ZM169.521 237.528C169.953 236.856 170.713 236.52 171.801 236.52V237.948C171.673 237.924 171.557 237.912 171.453 237.912C170.869 237.912 170.413 238.084 170.085 238.428C169.757 238.764 169.593 239.252 169.593 239.892V243H168.093V236.592H169.521V237.528ZM175.077 243.084C174.557 243.084 174.049 243.016 173.553 242.88C173.057 242.744 172.661 242.572 172.365 242.364L172.941 241.224C173.229 241.416 173.573 241.572 173.973 241.692C174.381 241.804 174.781 241.86 175.173 241.86C176.069 241.86 176.517 241.624 176.517 241.152C176.517 240.928 176.401 240.772 176.169 240.684C175.945 240.596 175.581 240.512 175.077 240.432C174.549 240.352 174.117 240.26 173.781 240.156C173.453 240.052 173.165 239.872 172.917 239.616C172.677 239.352 172.557 238.988 172.557 238.524C172.557 237.916 172.809 237.432 173.313 237.072C173.825 236.704 174.513 236.52 175.377 236.52C175.817 236.52 176.257 236.572 176.697 236.676C177.137 236.772 177.497 236.904 177.777 237.072L177.201 238.212C176.657 237.892 176.045 237.732 175.365 237.732C174.925 237.732 174.589 237.8 174.357 237.936C174.133 238.064 174.021 238.236 174.021 238.452C174.021 238.692 174.141 238.864 174.381 238.968C174.629 239.064 175.009 239.156 175.521 239.244C176.033 239.324 176.453 239.416 176.781 239.52C177.109 239.624 177.389 239.8 177.621 240.048C177.861 240.296 177.981 240.648 177.981 241.104C177.981 241.704 177.721 242.184 177.201 242.544C176.681 242.904 175.973 243.084 175.077 243.084Z" fill="#828282"/>
<rect x="40" y="228" width="22" height="22" rx="8" fill="#FFBB4F"/>
<path d="M50.904 236C51.848 236 52.568 236.228 53.064 236.684C53.568 237.132 53.82 237.812 53.82 238.724V242.48H52.404V241.7C52.22 241.98 51.956 242.196 51.612 242.348C51.276 242.492 50.868 242.564 50.388 242.564C49.908 242.564 49.488 242.484 49.128 242.324C48.768 242.156 48.488 241.928 48.288 241.64C48.096 241.344 48 241.012 48 240.644C48 240.068 48.212 239.608 48.636 239.264C49.068 238.912 49.744 238.736 50.664 238.736H52.32V238.64C52.32 238.192 52.184 237.848 51.912 237.608C51.648 237.368 51.252 237.248 50.724 237.248C50.364 237.248 50.008 237.304 49.656 237.416C49.312 237.528 49.02 237.684 48.78 237.884L48.192 236.792C48.528 236.536 48.932 236.34 49.404 236.204C49.876 236.068 50.376 236 50.904 236ZM50.7 241.472C51.076 241.472 51.408 241.388 51.696 241.22C51.992 241.044 52.2 240.796 52.32 240.476V239.732H50.772C49.908 239.732 49.476 240.016 49.476 240.584C49.476 240.856 49.584 241.072 49.8 241.232C50.016 241.392 50.316 241.472 50.7 241.472Z" fill="white"/>
<rect x="40" y="258" width="22" height="22" rx="8" fill="#FFDA93"/>
<path d="M52.956 272.408L51.312 270.188L49.656 272.408H48L50.496 269.156L48.108 266H49.776L51.348 268.1L52.92 266H54.54L52.14 269.132L54.648 272.408H52.956Z" fill="white"/>
<path d="M80.688 265.908V268.464H84.744V269.784H80.688V273H79.128V264.6H85.26V265.908H80.688ZM87.9354 267.528C88.3674 266.856 89.1274 266.52 90.2154 266.52V267.948C90.0874 267.924 89.9714 267.912 89.8674 267.912C89.2834 267.912 88.8274 268.084 88.4994 268.428C88.1714 268.764 88.0074 269.252 88.0074 269.892V273H86.5074V266.592H87.9354V267.528ZM93.9008 266.52C94.8448 266.52 95.5648 266.748 96.0608 267.204C96.5648 267.652 96.8168 268.332 96.8168 269.244V273H95.4008V272.22C95.2168 272.5 94.9528 272.716 94.6088 272.868C94.2728 273.012 93.8648 273.084 93.3848 273.084C92.9048 273.084 92.4848 273.004 92.1248 272.844C91.7648 272.676 91.4848 272.448 91.2848 272.16C91.0928 271.864 90.9968 271.532 90.9968 271.164C90.9968 270.588 91.2088 270.128 91.6328 269.784C92.0648 269.432 92.7408 269.256 93.6608 269.256H95.3168V269.16C95.3168 268.712 95.1808 268.368 94.9088 268.128C94.6448 267.888 94.2488 267.768 93.7208 267.768C93.3608 267.768 93.0048 267.824 92.6528 267.936C92.3088 268.048 92.0168 268.204 91.7768 268.404L91.1888 267.312C91.5248 267.056 91.9288 266.86 92.4008 266.724C92.8728 266.588 93.3728 266.52 93.9008 266.52ZM93.6968 271.992C94.0728 271.992 94.4048 271.908 94.6928 271.74C94.9888 271.564 95.1968 271.316 95.3168 270.996V270.252H93.7688C92.9048 270.252 92.4728 270.536 92.4728 271.104C92.4728 271.376 92.5808 271.592 92.7968 271.752C93.0128 271.912 93.3128 271.992 93.6968 271.992ZM104.946 266.592V273H103.518V272.184C103.278 272.472 102.978 272.696 102.618 272.856C102.258 273.008 101.87 273.084 101.454 273.084C100.598 273.084 99.9218 272.848 99.4258 272.376C98.9378 271.896 98.6938 271.188 98.6938 270.252V266.592H100.194V270.048C100.194 270.624 100.322 271.056 100.578 271.344C100.842 271.624 101.214 271.764 101.694 271.764C102.23 271.764 102.654 271.6 102.966 271.272C103.286 270.936 103.446 270.456 103.446 269.832V266.592H104.946ZM113.186 264.096V273H111.746V272.172C111.498 272.476 111.19 272.704 110.822 272.856C110.462 273.008 110.062 273.084 109.622 273.084C109.006 273.084 108.45 272.948 107.954 272.676C107.466 272.404 107.082 272.02 106.802 271.524C106.522 271.02 106.382 270.444 106.382 269.796C106.382 269.148 106.522 268.576 106.802 268.08C107.082 267.584 107.466 267.2 107.954 266.928C108.45 266.656 109.006 266.52 109.622 266.52C110.046 266.52 110.434 266.592 110.786 266.736C111.138 266.88 111.438 267.096 111.686 267.384V264.096H113.186ZM109.802 271.8C110.162 271.8 110.486 271.72 110.774 271.56C111.062 271.392 111.29 271.156 111.458 270.852C111.626 270.548 111.71 270.196 111.71 269.796C111.71 269.396 111.626 269.044 111.458 268.74C111.29 268.436 111.062 268.204 110.774 268.044C110.486 267.876 110.162 267.792 109.802 267.792C109.442 267.792 109.118 267.876 108.83 268.044C108.542 268.204 108.314 268.436 108.146 268.74C107.978 269.044 107.894 269.396 107.894 269.796C107.894 270.196 107.978 270.548 108.146 270.852C108.314 271.156 108.542 271.392 108.83 271.56C109.118 271.72 109.442 271.8 109.802 271.8ZM122.016 266.52C122.64 266.52 123.196 266.656 123.684 266.928C124.18 267.2 124.568 267.584 124.848 268.08C125.128 268.576 125.268 269.148 125.268 269.796C125.268 270.444 125.128 271.02 124.848 271.524C124.568 272.02 124.18 272.404 123.684 272.676C123.196 272.948 122.64 273.084 122.016 273.084C121.576 273.084 121.172 273.008 120.804 272.856C120.444 272.704 120.14 272.476 119.892 272.172V273H118.464V264.096H119.964V267.372C120.22 267.092 120.52 266.88 120.864 266.736C121.216 266.592 121.6 266.52 122.016 266.52ZM121.848 271.8C122.4 271.8 122.852 271.616 123.204 271.248C123.564 270.88 123.744 270.396 123.744 269.796C123.744 269.196 123.564 268.712 123.204 268.344C122.852 267.976 122.4 267.792 121.848 267.792C121.488 267.792 121.164 267.876 120.876 268.044C120.588 268.204 120.36 268.436 120.192 268.74C120.024 269.044 119.94 269.396 119.94 269.796C119.94 270.196 120.024 270.548 120.192 270.852C120.36 271.156 120.588 271.392 120.876 271.56C121.164 271.72 121.488 271.8 121.848 271.8ZM126.691 264.096H128.191V273H126.691V264.096ZM133.04 273.084C132.392 273.084 131.808 272.944 131.288 272.664C130.768 272.384 130.36 271.996 130.064 271.5C129.776 270.996 129.632 270.428 129.632 269.796C129.632 269.164 129.776 268.6 130.064 268.104C130.36 267.608 130.768 267.22 131.288 266.94C131.808 266.66 132.392 266.52 133.04 266.52C133.696 266.52 134.284 266.66 134.804 266.94C135.324 267.22 135.728 267.608 136.016 268.104C136.312 268.6 136.46 269.164 136.46 269.796C136.46 270.428 136.312 270.996 136.016 271.5C135.728 271.996 135.324 272.384 134.804 272.664C134.284 272.944 133.696 273.084 133.04 273.084ZM133.04 271.8C133.592 271.8 134.048 271.616 134.408 271.248C134.768 270.88 134.948 270.396 134.948 269.796C134.948 269.196 134.768 268.712 134.408 268.344C134.048 267.976 133.592 267.792 133.04 267.792C132.488 267.792 132.032 267.976 131.672 268.344C131.32 268.712 131.144 269.196 131.144 269.796C131.144 270.396 131.32 270.88 131.672 271.248C132.032 271.616 132.488 271.8 133.04 271.8ZM140.834 273.084C140.17 273.084 139.574 272.944 139.046 272.664C138.518 272.384 138.106 271.996 137.81 271.5C137.514 270.996 137.366 270.428 137.366 269.796C137.366 269.164 137.514 268.6 137.81 268.104C138.106 267.608 138.514 267.22 139.034 266.94C139.562 266.66 140.162 266.52 140.834 266.52C141.466 266.52 142.018 266.648 142.49 266.904C142.97 267.16 143.33 267.528 143.57 268.008L142.418 268.68C142.234 268.384 142.002 268.164 141.722 268.02C141.45 267.868 141.15 267.792 140.822 267.792C140.262 267.792 139.798 267.976 139.43 268.344C139.062 268.704 138.878 269.188 138.878 269.796C138.878 270.404 139.058 270.892 139.418 271.26C139.786 271.62 140.254 271.8 140.822 271.8C141.15 271.8 141.45 271.728 141.722 271.584C142.002 271.432 142.234 271.208 142.418 270.912L143.57 271.584C143.322 272.064 142.958 272.436 142.478 272.7C142.006 272.956 141.458 273.084 140.834 273.084ZM147.424 270.252L146.308 271.308V273H144.808V264.096H146.308V269.472L149.416 266.592H151.216L148.54 269.28L151.468 273H149.644L147.424 270.252ZM154.218 273.084C153.698 273.084 153.19 273.016 152.694 272.88C152.198 272.744 151.802 272.572 151.506 272.364L152.082 271.224C152.37 271.416 152.714 271.572 153.114 271.692C153.522 271.804 153.922 271.86 154.314 271.86C155.21 271.86 155.658 271.624 155.658 271.152C155.658 270.928 155.542 270.772 155.31 270.684C155.086 270.596 154.722 270.512 154.218 270.432C153.69 270.352 153.258 270.26 152.922 270.156C152.594 270.052 152.306 269.872 152.058 269.616C151.818 269.352 151.698 268.988 151.698 268.524C151.698 267.916 151.95 267.432 152.454 267.072C152.966 266.704 153.654 266.52 154.518 266.52C154.958 266.52 155.398 266.572 155.838 266.676C156.278 266.772 156.638 266.904 156.918 267.072L156.342 268.212C155.798 267.892 155.186 267.732 154.506 267.732C154.066 267.732 153.73 267.8 153.498 267.936C153.274 268.064 153.162 268.236 153.162 268.452C153.162 268.692 153.282 268.864 153.522 268.968C153.77 269.064 154.15 269.156 154.662 269.244C155.174 269.324 155.594 269.416 155.922 269.52C156.25 269.624 156.53 269.8 156.762 270.048C157.002 270.296 157.122 270.648 157.122 271.104C157.122 271.704 156.862 272.184 156.342 272.544C155.822 272.904 155.114 273.084 154.218 273.084Z" fill="#828282"/>
<rect x="40" y="288" width="22" height="22" rx="8" fill="#FF7576"/>
<path d="M51.408 302.564C50.76 302.564 50.176 302.424 49.656 302.144C49.136 301.864 48.728 301.476 48.432 300.98C48.144 300.476 48 299.908 48 299.276C48 298.644 48.144 298.08 48.432 297.584C48.728 297.088 49.136 296.7 49.656 296.42C50.176 296.14 50.76 296 51.408 296C52.064 296 52.652 296.14 53.172 296.42C53.692 296.7 54.096 297.088 54.384 297.584C54.68 298.08 54.828 298.644 54.828 299.276C54.828 299.908 54.68 300.476 54.384 300.98C54.096 301.476 53.692 301.864 53.172 302.144C52.652 302.424 52.064 302.564 51.408 302.564ZM51.408 301.28C51.96 301.28 52.416 301.096 52.776 300.728C53.136 300.36 53.316 299.876 53.316 299.276C53.316 298.676 53.136 298.192 52.776 297.824C52.416 297.456 51.96 297.272 51.408 297.272C50.856 297.272 50.4 297.456 50.04 297.824C49.688 298.192 49.512 298.676 49.512 299.276C49.512 299.876 49.688 300.36 50.04 300.728C50.4 301.096 50.856 301.28 51.408 301.28Z" fill="white"/>
<path d="M85.08 298.632C85.544 298.784 85.912 299.04 86.184 299.4C86.456 299.752 86.592 300.192 86.592 300.72C86.592 301.448 86.312 302.012 85.752 302.412C85.192 302.804 84.376 303 83.304 303H79.128V294.6H83.064C84.056 294.6 84.82 294.796 85.356 295.188C85.892 295.572 86.16 296.104 86.16 296.784C86.16 297.2 86.064 297.568 85.872 297.888C85.68 298.208 85.416 298.456 85.08 298.632ZM80.688 295.824V298.14H82.896C83.44 298.14 83.856 298.044 84.144 297.852C84.44 297.652 84.588 297.364 84.588 296.988C84.588 296.604 84.44 296.316 84.144 296.124C83.856 295.924 83.44 295.824 82.896 295.824H80.688ZM83.208 301.776C84.416 301.776 85.02 301.372 85.02 300.564C85.02 299.756 84.416 299.352 83.208 299.352H80.688V301.776H83.208ZM90.5609 296.52C91.5049 296.52 92.2249 296.748 92.7209 297.204C93.2249 297.652 93.4769 298.332 93.4769 299.244V303H92.0609V302.22C91.8769 302.5 91.6129 302.716 91.2689 302.868C90.9329 303.012 90.5249 303.084 90.0449 303.084C89.5649 303.084 89.1449 303.004 88.7849 302.844C88.4249 302.676 88.1449 302.448 87.9449 302.16C87.7529 301.864 87.6569 301.532 87.6569 301.164C87.6569 300.588 87.8689 300.128 88.2929 299.784C88.7249 299.432 89.4009 299.256 90.3209 299.256H91.9769V299.16C91.9769 298.712 91.8409 298.368 91.5689 298.128C91.3049 297.888 90.9089 297.768 90.3809 297.768C90.0209 297.768 89.6649 297.824 89.3129 297.936C88.9689 298.048 88.6769 298.204 88.4369 298.404L87.8489 297.312C88.1849 297.056 88.5889 296.86 89.0609 296.724C89.5329 296.588 90.0329 296.52 90.5609 296.52ZM90.3569 301.992C90.7329 301.992 91.0649 301.908 91.3529 301.74C91.6489 301.564 91.8569 301.316 91.9769 300.996V300.252H90.4289C89.5649 300.252 89.1329 300.536 89.1329 301.104C89.1329 301.376 89.2409 301.592 89.4569 301.752C89.6729 301.912 89.9729 301.992 90.3569 301.992ZM99.038 296.52C99.846 296.52 100.494 296.756 100.982 297.228C101.47 297.7 101.714 298.4 101.714 299.328V303H100.214V299.52C100.214 298.96 100.082 298.54 99.818 298.26C99.554 297.972 99.178 297.828 98.69 297.828C98.138 297.828 97.702 297.996 97.382 298.332C97.062 298.66 96.902 299.136 96.902 299.76V303H95.402V296.592H96.83V297.42C97.078 297.124 97.39 296.9 97.766 296.748C98.142 296.596 98.566 296.52 99.038 296.52ZM106.233 300.252L105.117 301.308V303H103.617V294.096H105.117V299.472L108.225 296.592H110.025L107.349 299.28L110.277 303H108.453L106.233 300.252ZM120.586 299.832C120.586 299.936 120.578 300.084 120.562 300.276H115.534C115.622 300.748 115.85 301.124 116.218 301.404C116.594 301.676 117.058 301.812 117.61 301.812C118.314 301.812 118.894 301.58 119.35 301.116L120.154 302.04C119.866 302.384 119.502 302.644 119.062 302.82C118.622 302.996 118.126 303.084 117.574 303.084C116.87 303.084 116.25 302.944 115.714 302.664C115.178 302.384 114.762 301.996 114.466 301.5C114.178 300.996 114.034 300.428 114.034 299.796C114.034 299.172 114.174 298.612 114.454 298.116C114.742 297.612 115.138 297.22 115.642 296.94C116.146 296.66 116.714 296.52 117.346 296.52C117.97 296.52 118.526 296.66 119.014 296.94C119.51 297.212 119.894 297.6 120.166 298.104C120.446 298.6 120.586 299.176 120.586 299.832ZM117.346 297.72C116.866 297.72 116.458 297.864 116.122 298.152C115.794 298.432 115.594 298.808 115.522 299.28H119.158C119.094 298.816 118.898 298.44 118.57 298.152C118.242 297.864 117.834 297.72 117.346 297.72ZM123.455 297.528C123.887 296.856 124.647 296.52 125.735 296.52V297.948C125.607 297.924 125.491 297.912 125.387 297.912C124.803 297.912 124.347 298.084 124.019 298.428C123.691 298.764 123.527 299.252 123.527 299.892V303H122.027V296.592H123.455V297.528ZM128.435 297.528C128.867 296.856 129.627 296.52 130.715 296.52V297.948C130.587 297.924 130.471 297.912 130.367 297.912C129.783 297.912 129.327 298.084 128.999 298.428C128.671 298.764 128.507 299.252 128.507 299.892V303H127.007V296.592H128.435V297.528ZM134.809 303.084C134.161 303.084 133.577 302.944 133.057 302.664C132.537 302.384 132.129 301.996 131.833 301.5C131.545 300.996 131.401 300.428 131.401 299.796C131.401 299.164 131.545 298.6 131.833 298.104C132.129 297.608 132.537 297.22 133.057 296.94C133.577 296.66 134.161 296.52 134.809 296.52C135.465 296.52 136.053 296.66 136.573 296.94C137.093 297.22 137.497 297.608 137.785 298.104C138.081 298.6 138.229 299.164 138.229 299.796C138.229 300.428 138.081 300.996 137.785 301.5C137.497 301.996 137.093 302.384 136.573 302.664C136.053 302.944 135.465 303.084 134.809 303.084ZM134.809 301.8C135.361 301.8 135.817 301.616 136.177 301.248C136.537 300.88 136.717 300.396 136.717 299.796C136.717 299.196 136.537 298.712 136.177 298.344C135.817 297.976 135.361 297.792 134.809 297.792C134.257 297.792 133.801 297.976 133.441 298.344C133.089 298.712 132.913 299.196 132.913 299.796C132.913 300.396 133.089 300.88 133.441 301.248C133.801 301.616 134.257 301.8 134.809 301.8ZM141.092 297.528C141.524 296.856 142.284 296.52 143.372 296.52V297.948C143.244 297.924 143.128 297.912 143.024 297.912C142.44 297.912 141.984 298.084 141.656 298.428C141.328 298.764 141.164 299.252 141.164 299.892V303H139.664V296.592H141.092V297.528ZM146.648 303.084C146.128 303.084 145.62 303.016 145.124 302.88C144.628 302.744 144.232 302.572 143.936 302.364L144.512 301.224C144.8 301.416 145.144 301.572 145.544 301.692C145.952 301.804 146.352 301.86 146.744 301.86C147.64 301.86 148.088 301.624 148.088 301.152C148.088 300.928 147.972 300.772 147.74 300.684C147.516 300.596 147.152 300.512 146.648 300.432C146.12 300.352 145.688 300.26 145.352 300.156C145.024 300.052 144.736 299.872 144.488 299.616C144.248 299.352 144.128 298.988 144.128 298.524C144.128 297.916 144.38 297.432 144.884 297.072C145.396 296.704 146.084 296.52 146.948 296.52C147.388 296.52 147.828 296.572 148.268 296.676C148.708 296.772 149.068 296.904 149.348 297.072L148.772 298.212C148.228 297.892 147.616 297.732 146.936 297.732C146.496 297.732 146.16 297.8 145.928 297.936C145.704 298.064 145.592 298.236 145.592 298.452C145.592 298.692 145.712 298.864 145.952 298.968C146.2 299.064 146.58 299.156 147.092 299.244C147.604 299.324 148.024 299.416 148.352 299.52C148.68 299.624 148.96 299.8 149.192 300.048C149.432 300.296 149.552 300.648 149.552 301.104C149.552 301.704 149.292 302.184 148.772 302.544C148.252 302.904 147.544 303.084 146.648 303.084Z" fill="#828282"/>
<path d="M46.176 28.8C47.168 28.8 48.0267 28.9653 48.752 29.296C49.488 29.6267 50.0533 30.096 50.448 30.704C50.8427 31.312 51.04 32.032 51.04 32.864C51.04 33.6853 50.8427 34.4053 50.448 35.024C50.0533 35.632 49.488 36.1013 48.752 36.432C48.0267 36.752 47.168 36.912 46.176 36.912H43.92V40H41.328V28.8H46.176ZM46.032 34.8C46.8107 34.8 47.4027 34.6347 47.808 34.304C48.2133 33.9627 48.416 33.4827 48.416 32.864C48.416 32.2347 48.2133 31.7547 47.808 31.424C47.4027 31.0827 46.8107 30.912 46.032 30.912H43.92V34.8H46.032ZM56.1084 31.264C57.4417 31.264 58.4657 31.584 59.1804 32.224C59.895 32.8533 60.2524 33.808 60.2524 35.088V40H57.9164V38.928C57.447 39.728 56.5724 40.128 55.2924 40.128C54.631 40.128 54.055 40.016 53.5644 39.792C53.0844 39.568 52.7164 39.2587 52.4604 38.864C52.2044 38.4693 52.0764 38.0213 52.0764 37.52C52.0764 36.72 52.375 36.0907 52.9724 35.632C53.5804 35.1733 54.5137 34.944 55.7724 34.944H57.7564C57.7564 34.4 57.591 33.984 57.2604 33.696C56.9297 33.3973 56.4337 33.248 55.7724 33.248C55.3137 33.248 54.8604 33.3227 54.4124 33.472C53.975 33.6107 53.6017 33.8027 53.2924 34.048L52.3964 32.304C52.8657 31.9733 53.4257 31.7173 54.0764 31.536C54.7377 31.3547 55.415 31.264 56.1084 31.264ZM55.9164 38.448C56.343 38.448 56.7217 38.352 57.0524 38.16C57.383 37.9573 57.6177 37.664 57.7564 37.28V36.4H56.0444C55.0204 36.4 54.5084 36.736 54.5084 37.408C54.5084 37.728 54.631 37.984 54.8764 38.176C55.1324 38.3573 55.479 38.448 55.9164 38.448ZM70.8991 31.392L67.0111 40.528C66.6165 41.52 66.1258 42.2187 65.5391 42.624C64.9631 43.0293 64.2645 43.232 63.4431 43.232C62.9951 43.232 62.5525 43.1627 62.1151 43.024C61.6778 42.8853 61.3205 42.6933 61.0431 42.448L61.9551 40.672C62.1471 40.8427 62.3658 40.976 62.6111 41.072C62.8671 41.168 63.1178 41.216 63.3631 41.216C63.7045 41.216 63.9818 41.1307 64.1951 40.96C64.4085 40.8 64.6005 40.528 64.7711 40.144L64.8031 40.064L61.0751 31.392H63.6511L66.0671 37.232L68.4991 31.392H70.8991ZM82.9416 31.264C84.019 31.264 84.8723 31.584 85.5016 32.224C86.1416 32.8533 86.4616 33.8027 86.4616 35.072V40H83.9656V35.456C83.9656 34.7733 83.8216 34.2667 83.5336 33.936C83.2563 33.5947 82.8563 33.424 82.3336 33.424C81.747 33.424 81.283 33.616 80.9416 34C80.6003 34.3733 80.4296 34.9333 80.4296 35.68V40H77.9336V35.456C77.9336 34.1013 77.3896 33.424 76.3016 33.424C75.7256 33.424 75.267 33.616 74.9256 34C74.5843 34.3733 74.4136 34.9333 74.4136 35.68V40H71.9176V31.392H74.3016V32.384C74.6216 32.0213 75.011 31.744 75.4696 31.552C75.939 31.36 76.451 31.264 77.0056 31.264C77.6136 31.264 78.163 31.3867 78.6536 31.632C79.1443 31.8667 79.539 32.2133 79.8376 32.672C80.1896 32.224 80.6323 31.8773 81.1656 31.632C81.7096 31.3867 82.3016 31.264 82.9416 31.264ZM97.2246 35.728C97.2246 35.76 97.2086 35.984 97.1766 36.4H90.6646C90.782 36.9333 91.0593 37.3547 91.4966 37.664C91.934 37.9733 92.478 38.128 93.1286 38.128C93.5766 38.128 93.9713 38.064 94.3126 37.936C94.6646 37.7973 94.99 37.584 95.2886 37.296L96.6166 38.736C95.806 39.664 94.622 40.128 93.0646 40.128C92.094 40.128 91.2353 39.9413 90.4886 39.568C89.742 39.184 89.166 38.656 88.7606 37.984C88.3553 37.312 88.1526 36.5493 88.1526 35.696C88.1526 34.8533 88.35 34.096 88.7446 33.424C89.15 32.7413 89.6993 32.2133 90.3926 31.84C91.0966 31.456 91.8806 31.264 92.7446 31.264C93.5873 31.264 94.35 31.4453 95.0326 31.808C95.7153 32.1707 96.2486 32.6933 96.6326 33.376C97.0273 34.048 97.2246 34.832 97.2246 35.728ZM92.7606 33.152C92.1953 33.152 91.7206 33.312 91.3366 33.632C90.9526 33.952 90.718 34.3893 90.6326 34.944H94.8726C94.7873 34.4 94.5526 33.968 94.1686 33.648C93.7846 33.3173 93.3153 33.152 92.7606 33.152ZM104.118 31.264C105.185 31.264 106.044 31.584 106.694 32.224C107.356 32.864 107.686 33.8133 107.686 35.072V40H105.19V35.456C105.19 34.7733 105.041 34.2667 104.742 33.936C104.444 33.5947 104.012 33.424 103.446 33.424C102.817 33.424 102.316 33.6213 101.942 34.016C101.569 34.4 101.382 34.976 101.382 35.744V40H98.8864V31.392H101.27V32.4C101.601 32.0373 102.012 31.76 102.502 31.568C102.993 31.3653 103.532 31.264 104.118 31.264ZM115.501 39.584C115.256 39.7653 114.952 39.904 114.589 40C114.237 40.0853 113.864 40.128 113.469 40.128C112.445 40.128 111.65 39.8667 111.085 39.344C110.53 38.8213 110.253 38.0533 110.253 37.04V33.504H108.925V31.584H110.253V29.488H112.749V31.584H114.893V33.504H112.749V37.008C112.749 37.3707 112.84 37.6533 113.021 37.856C113.213 38.048 113.48 38.144 113.821 38.144C114.216 38.144 114.552 38.0373 114.829 37.824L115.501 39.584ZM121.433 31.392H123.929V40H121.433V31.392ZM122.681 30.192C122.223 30.192 121.849 30.0587 121.561 29.792C121.273 29.5253 121.129 29.1947 121.129 28.8C121.129 28.4053 121.273 28.0747 121.561 27.808C121.849 27.5413 122.223 27.408 122.681 27.408C123.14 27.408 123.513 27.536 123.801 27.792C124.089 28.048 124.233 28.368 124.233 28.752C124.233 29.168 124.089 29.5147 123.801 29.792C123.513 30.0587 123.14 30.192 122.681 30.192ZM129.142 40.128C128.427 40.128 127.728 40.0427 127.046 39.872C126.363 39.6907 125.819 39.4667 125.414 39.2L126.246 37.408C126.63 37.6533 127.094 37.856 127.638 38.016C128.182 38.1653 128.715 38.24 129.238 38.24C130.294 38.24 130.822 37.9787 130.822 37.456C130.822 37.2107 130.678 37.0347 130.39 36.928C130.102 36.8213 129.659 36.7307 129.062 36.656C128.358 36.5493 127.776 36.4267 127.318 36.288C126.859 36.1493 126.459 35.904 126.118 35.552C125.787 35.2 125.622 34.6987 125.622 34.048C125.622 33.504 125.776 33.024 126.086 32.608C126.406 32.1813 126.864 31.8507 127.462 31.616C128.07 31.3813 128.784 31.264 129.606 31.264C130.214 31.264 130.816 31.3333 131.414 31.472C132.022 31.6 132.523 31.7813 132.918 32.016L132.086 33.792C131.328 33.3653 130.502 33.152 129.606 33.152C129.072 33.152 128.672 33.2267 128.406 33.376C128.139 33.5253 128.006 33.7173 128.006 33.952C128.006 34.2187 128.15 34.4053 128.438 34.512C128.726 34.6187 129.184 34.72 129.814 34.816C130.518 34.9333 131.094 35.0613 131.542 35.2C131.99 35.328 132.379 35.568 132.71 35.92C133.04 36.272 133.206 36.7627 133.206 37.392C133.206 37.9253 133.046 38.4 132.726 38.816C132.406 39.232 131.936 39.5573 131.318 39.792C130.71 40.016 129.984 40.128 129.142 40.128ZM137.642 40.128C136.927 40.128 136.228 40.0427 135.546 39.872C134.863 39.6907 134.319 39.4667 133.914 39.2L134.746 37.408C135.13 37.6533 135.594 37.856 136.138 38.016C136.682 38.1653 137.215 38.24 137.738 38.24C138.794 38.24 139.322 37.9787 139.322 37.456C139.322 37.2107 139.178 37.0347 138.89 36.928C138.602 36.8213 138.159 36.7307 137.562 36.656C136.858 36.5493 136.276 36.4267 135.818 36.288C135.359 36.1493 134.959 35.904 134.618 35.552C134.287 35.2 134.122 34.6987 134.122 34.048C134.122 33.504 134.276 33.024 134.586 32.608C134.906 32.1813 135.364 31.8507 135.962 31.616C136.57 31.3813 137.284 31.264 138.106 31.264C138.714 31.264 139.316 31.3333 139.914 31.472C140.522 31.6 141.023 31.7813 141.418 32.016L140.586 33.792C139.828 33.3653 139.002 33.152 138.106 33.152C137.572 33.152 137.172 33.2267 136.906 33.376C136.639 33.5253 136.506 33.7173 136.506 33.952C136.506 34.2187 136.65 34.4053 136.938 34.512C137.226 34.6187 137.684 34.72 138.314 34.816C139.018 34.9333 139.594 35.0613 140.042 35.2C140.49 35.328 140.879 35.568 141.21 35.92C141.54 36.272 141.706 36.7627 141.706 37.392C141.706 37.9253 141.546 38.4 141.226 38.816C140.906 39.232 140.436 39.5573 139.818 39.792C139.21 40.016 138.484 40.128 137.642 40.128ZM151.918 31.392V40H149.55V38.976C149.219 39.3493 148.824 39.6373 148.366 39.84C147.907 40.032 147.411 40.128 146.878 40.128C145.747 40.128 144.851 39.8027 144.19 39.152C143.528 38.5013 143.198 37.536 143.198 36.256V31.392H145.694V35.888C145.694 37.2747 146.275 37.968 147.438 37.968C148.035 37.968 148.515 37.776 148.878 37.392C149.24 36.9973 149.422 36.416 149.422 35.648V31.392H151.918ZM162.662 35.728C162.662 35.76 162.646 35.984 162.614 36.4H156.102C156.219 36.9333 156.497 37.3547 156.934 37.664C157.371 37.9733 157.915 38.128 158.566 38.128C159.014 38.128 159.409 38.064 159.75 37.936C160.102 37.7973 160.427 37.584 160.726 37.296L162.054 38.736C161.243 39.664 160.059 40.128 158.502 40.128C157.531 40.128 156.673 39.9413 155.926 39.568C155.179 39.184 154.603 38.656 154.198 37.984C153.793 37.312 153.59 36.5493 153.59 35.696C153.59 34.8533 153.787 34.096 154.182 33.424C154.587 32.7413 155.137 32.2133 155.83 31.84C156.534 31.456 157.318 31.264 158.182 31.264C159.025 31.264 159.787 31.4453 160.47 31.808C161.153 32.1707 161.686 32.6933 162.07 33.376C162.465 34.048 162.662 34.832 162.662 35.728ZM158.198 33.152C157.633 33.152 157.158 33.312 156.774 33.632C156.39 33.952 156.155 34.3893 156.07 34.944H160.31C160.225 34.4 159.99 33.968 159.606 33.648C159.222 33.3173 158.753 33.152 158.198 33.152ZM167.22 40.128C166.505 40.128 165.807 40.0427 165.124 39.872C164.441 39.6907 163.897 39.4667 163.492 39.2L164.324 37.408C164.708 37.6533 165.172 37.856 165.716 38.016C166.26 38.1653 166.793 38.24 167.316 38.24C168.372 38.24 168.9 37.9787 168.9 37.456C168.9 37.2107 168.756 37.0347 168.468 36.928C168.18 36.8213 167.737 36.7307 167.14 36.656C166.436 36.5493 165.855 36.4267 165.396 36.288C164.937 36.1493 164.537 35.904 164.196 35.552C163.865 35.2 163.7 34.6987 163.7 34.048C163.7 33.504 163.855 33.024 164.164 32.608C164.484 32.1813 164.943 31.8507 165.54 31.616C166.148 31.3813 166.863 31.264 167.684 31.264C168.292 31.264 168.895 31.3333 169.492 31.472C170.1 31.6 170.601 31.7813 170.996 32.016L170.164 33.792C169.407 33.3653 168.58 33.152 167.684 33.152C167.151 33.152 166.751 33.2267 166.484 33.376C166.217 33.5253 166.084 33.7173 166.084 33.952C166.084 34.2187 166.228 34.4053 166.516 34.512C166.804 34.6187 167.263 34.72 167.892 34.816C168.596 34.9333 169.172 35.0613 169.62 35.2C170.068 35.328 170.457 35.568 170.788 35.92C171.119 36.272 171.284 36.7627 171.284 37.392C171.284 37.9253 171.124 38.4 170.804 38.816C170.484 39.232 170.015 39.5573 169.396 39.792C168.788 40.016 168.063 40.128 167.22 40.128Z" fill="#333333"/>
<path d="M43.304 197.74H40.056V196.2H48.372V197.74H45.124V206H43.304V197.74ZM52.1643 206.098C51.4083 206.098 50.7269 205.935 50.1203 205.608C49.5136 205.281 49.0376 204.829 48.6923 204.25C48.3563 203.662 48.1883 202.999 48.1883 202.262C48.1883 201.525 48.3563 200.867 48.6923 200.288C49.0376 199.709 49.5136 199.257 50.1203 198.93C50.7269 198.603 51.4083 198.44 52.1643 198.44C52.9296 198.44 53.6156 198.603 54.2223 198.93C54.8289 199.257 55.3003 199.709 55.6363 200.288C55.9816 200.867 56.1543 201.525 56.1543 202.262C56.1543 202.999 55.9816 203.662 55.6363 204.25C55.3003 204.829 54.8289 205.281 54.2223 205.608C53.6156 205.935 52.9296 206.098 52.1643 206.098ZM52.1643 204.6C52.8083 204.6 53.3403 204.385 53.7603 203.956C54.1803 203.527 54.3903 202.962 54.3903 202.262C54.3903 201.562 54.1803 200.997 53.7603 200.568C53.3403 200.139 52.8083 199.924 52.1643 199.924C51.5203 199.924 50.9883 200.139 50.5683 200.568C50.1576 200.997 49.9523 201.562 49.9523 202.262C49.9523 202.962 50.1576 203.527 50.5683 203.956C50.9883 204.385 51.5203 204.6 52.1643 204.6ZM62.3217 205.594C62.1164 205.762 61.8644 205.888 61.5657 205.972C61.2764 206.056 60.9684 206.098 60.6417 206.098C59.8204 206.098 59.1857 205.883 58.7377 205.454C58.2897 205.025 58.0657 204.399 58.0657 203.578V199.98H56.8337V198.58H58.0657V196.872H59.8157V198.58H61.8177V199.98H59.8157V203.536C59.8157 203.9 59.9044 204.18 60.0817 204.376C60.259 204.563 60.5157 204.656 60.8517 204.656C61.2437 204.656 61.5704 204.553 61.8317 204.348L62.3217 205.594ZM66.6173 198.44C67.7186 198.44 68.5586 198.706 69.1373 199.238C69.7253 199.761 70.0193 200.554 70.0193 201.618V206H68.3673V205.09C68.1526 205.417 67.8446 205.669 67.4433 205.846C67.0513 206.014 66.5753 206.098 66.0153 206.098C65.4553 206.098 64.9653 206.005 64.5453 205.818C64.1253 205.622 63.7986 205.356 63.5653 205.02C63.3413 204.675 63.2293 204.287 63.2293 203.858C63.2293 203.186 63.4766 202.649 63.9713 202.248C64.4753 201.837 65.2639 201.632 66.3373 201.632H68.2693V201.52C68.2693 200.997 68.1106 200.596 67.7933 200.316C67.4853 200.036 67.0233 199.896 66.4073 199.896C65.9873 199.896 65.5719 199.961 65.1613 200.092C64.7599 200.223 64.4193 200.405 64.1393 200.638L63.4533 199.364C63.8453 199.065 64.3166 198.837 64.8673 198.678C65.4179 198.519 66.0013 198.44 66.6173 198.44ZM66.3793 204.824C66.8179 204.824 67.2053 204.726 67.5413 204.53C67.8866 204.325 68.1293 204.035 68.2693 203.662V202.794H66.4633C65.4553 202.794 64.9513 203.125 64.9513 203.788C64.9513 204.105 65.0773 204.357 65.3293 204.544C65.5813 204.731 65.9313 204.824 66.3793 204.824ZM72.2652 195.612H74.0152V206H72.2652V195.612ZM84.4232 198.44C85.3659 198.44 86.1219 198.715 86.6912 199.266C87.2605 199.817 87.5452 200.633 87.5452 201.716V206H85.7952V201.94C85.7952 201.287 85.6412 200.797 85.3332 200.47C85.0252 200.134 84.5865 199.966 84.0172 199.966C83.3732 199.966 82.8645 200.162 82.4912 200.554C82.1179 200.937 81.9312 201.492 81.9312 202.22V206H80.1812V198.524H81.8472V199.49C82.1365 199.145 82.5005 198.883 82.9392 198.706C83.3779 198.529 83.8725 198.44 84.4232 198.44ZM97.0032 198.524V206H95.3372V205.048C95.0572 205.384 94.7072 205.645 94.2872 205.832C93.8672 206.009 93.4145 206.098 92.9292 206.098C91.9305 206.098 91.1419 205.823 90.5632 205.272C89.9939 204.712 89.7092 203.886 89.7092 202.794V198.524H91.4592V202.556C91.4592 203.228 91.6085 203.732 91.9072 204.068C92.2152 204.395 92.6492 204.558 93.2092 204.558C93.8345 204.558 94.3292 204.367 94.6932 203.984C95.0665 203.592 95.2532 203.032 95.2532 202.304V198.524H97.0032ZM108.73 198.44C109.673 198.44 110.42 198.715 110.97 199.266C111.521 199.807 111.796 200.624 111.796 201.716V206H110.046V201.94C110.046 201.287 109.902 200.797 109.612 200.47C109.323 200.134 108.908 199.966 108.366 199.966C107.778 199.966 107.307 200.162 106.952 200.554C106.598 200.937 106.42 201.487 106.42 202.206V206H104.67V201.94C104.67 201.287 104.526 200.797 104.236 200.47C103.947 200.134 103.532 199.966 102.99 199.966C102.393 199.966 101.917 200.157 101.562 200.54C101.217 200.923 101.044 201.478 101.044 202.206V206H99.2945V198.524H100.96V199.476C101.24 199.14 101.59 198.883 102.01 198.706C102.43 198.529 102.897 198.44 103.41 198.44C103.97 198.44 104.465 198.547 104.894 198.762C105.333 198.967 105.678 199.275 105.93 199.686C106.238 199.294 106.635 198.991 107.12 198.776C107.606 198.552 108.142 198.44 108.73 198.44ZM118.177 198.44C118.905 198.44 119.553 198.599 120.123 198.916C120.701 199.233 121.154 199.681 121.481 200.26C121.807 200.839 121.971 201.506 121.971 202.262C121.971 203.018 121.807 203.69 121.481 204.278C121.154 204.857 120.701 205.305 120.123 205.622C119.553 205.939 118.905 206.098 118.177 206.098C117.663 206.098 117.192 206.009 116.763 205.832C116.343 205.655 115.988 205.389 115.699 205.034V206H114.033V195.612H115.783V199.434C116.081 199.107 116.431 198.86 116.833 198.692C117.243 198.524 117.691 198.44 118.177 198.44ZM117.981 204.6C118.625 204.6 119.152 204.385 119.563 203.956C119.983 203.527 120.193 202.962 120.193 202.262C120.193 201.562 119.983 200.997 119.563 200.568C119.152 200.139 118.625 199.924 117.981 199.924C117.561 199.924 117.183 200.022 116.847 200.218C116.511 200.405 116.245 200.675 116.049 201.03C115.853 201.385 115.755 201.795 115.755 202.262C115.755 202.729 115.853 203.139 116.049 203.494C116.245 203.849 116.511 204.124 116.847 204.32C117.183 204.507 117.561 204.6 117.981 204.6ZM130.658 202.304C130.658 202.425 130.649 202.598 130.63 202.822H124.764C124.867 203.373 125.133 203.811 125.562 204.138C126.001 204.455 126.542 204.614 127.186 204.614C128.008 204.614 128.684 204.343 129.216 203.802L130.154 204.88C129.818 205.281 129.394 205.585 128.88 205.79C128.367 205.995 127.788 206.098 127.144 206.098C126.323 206.098 125.6 205.935 124.974 205.608C124.349 205.281 123.864 204.829 123.518 204.25C123.182 203.662 123.014 202.999 123.014 202.262C123.014 201.534 123.178 200.881 123.504 200.302C123.84 199.714 124.302 199.257 124.89 198.93C125.478 198.603 126.141 198.44 126.878 198.44C127.606 198.44 128.255 198.603 128.824 198.93C129.403 199.247 129.851 199.7 130.168 200.288C130.495 200.867 130.658 201.539 130.658 202.304ZM126.878 199.84C126.318 199.84 125.842 200.008 125.45 200.344C125.068 200.671 124.834 201.109 124.75 201.66H128.992C128.918 201.119 128.689 200.68 128.306 200.344C127.924 200.008 127.448 199.84 126.878 199.84ZM134.005 199.616C134.509 198.832 135.396 198.44 136.665 198.44V200.106C136.516 200.078 136.381 200.064 136.259 200.064C135.578 200.064 135.046 200.265 134.663 200.666C134.281 201.058 134.089 201.627 134.089 202.374V206H132.339V198.524H134.005V199.616ZM145.447 206.098C144.691 206.098 144.01 205.935 143.403 205.608C142.797 205.281 142.321 204.829 141.975 204.25C141.639 203.662 141.471 202.999 141.471 202.262C141.471 201.525 141.639 200.867 141.975 200.288C142.321 199.709 142.797 199.257 143.403 198.93C144.01 198.603 144.691 198.44 145.447 198.44C146.213 198.44 146.899 198.603 147.505 198.93C148.112 199.257 148.583 199.709 148.919 200.288C149.265 200.867 149.437 201.525 149.437 202.262C149.437 202.999 149.265 203.662 148.919 204.25C148.583 204.829 148.112 205.281 147.505 205.608C146.899 205.935 146.213 206.098 145.447 206.098ZM145.447 204.6C146.091 204.6 146.623 204.385 147.043 203.956C147.463 203.527 147.673 202.962 147.673 202.262C147.673 201.562 147.463 200.997 147.043 200.568C146.623 200.139 146.091 199.924 145.447 199.924C144.803 199.924 144.271 200.139 143.851 200.568C143.441 200.997 143.235 201.562 143.235 202.262C143.235 202.962 143.441 203.527 143.851 203.956C144.271 204.385 144.803 204.6 145.447 204.6ZM154.149 196.928C153.412 196.928 153.043 197.329 153.043 198.132V198.58H155.101V199.98H153.099V206H151.349V199.98H150.117V198.58H151.349V198.104C151.349 197.301 151.582 196.671 152.049 196.214C152.516 195.747 153.174 195.514 154.023 195.514C154.695 195.514 155.222 195.649 155.605 195.92L155.115 197.236C154.816 197.031 154.494 196.928 154.149 196.928ZM167.176 202.304C167.176 202.425 167.167 202.598 167.148 202.822H161.282C161.385 203.373 161.651 203.811 162.08 204.138C162.519 204.455 163.06 204.614 163.704 204.614C164.525 204.614 165.202 204.343 165.734 203.802L166.672 204.88C166.336 205.281 165.911 205.585 165.398 205.79C164.885 205.995 164.306 206.098 163.662 206.098C162.841 206.098 162.117 205.935 161.492 205.608C160.867 205.281 160.381 204.829 160.036 204.25C159.7 203.662 159.532 202.999 159.532 202.262C159.532 201.534 159.695 200.881 160.022 200.302C160.358 199.714 160.82 199.257 161.408 198.93C161.996 198.603 162.659 198.44 163.396 198.44C164.124 198.44 164.773 198.603 165.342 198.93C165.921 199.247 166.369 199.7 166.686 200.288C167.013 200.867 167.176 201.539 167.176 202.304ZM163.396 199.84C162.836 199.84 162.36 200.008 161.968 200.344C161.585 200.671 161.352 201.109 161.268 201.66H165.51C165.435 201.119 165.207 200.68 164.824 200.344C164.441 200.008 163.965 199.84 163.396 199.84ZM170.523 199.616C171.027 198.832 171.914 198.44 173.183 198.44V200.106C173.034 200.078 172.898 200.064 172.777 200.064C172.096 200.064 171.564 200.265 171.181 200.666C170.798 201.058 170.607 201.627 170.607 202.374V206H168.857V198.524H170.523V199.616ZM176.334 199.616C176.838 198.832 177.724 198.44 178.994 198.44V200.106C178.844 200.078 178.709 200.064 178.588 200.064C177.906 200.064 177.374 200.265 176.992 200.666C176.609 201.058 176.418 201.627 176.418 202.374V206H174.668V198.524H176.334V199.616ZM183.77 206.098C183.014 206.098 182.332 205.935 181.726 205.608C181.119 205.281 180.643 204.829 180.298 204.25C179.962 203.662 179.794 202.999 179.794 202.262C179.794 201.525 179.962 200.867 180.298 200.288C180.643 199.709 181.119 199.257 181.726 198.93C182.332 198.603 183.014 198.44 183.77 198.44C184.535 198.44 185.221 198.603 185.828 198.93C186.434 199.257 186.906 199.709 187.242 200.288C187.587 200.867 187.76 201.525 187.76 202.262C187.76 202.999 187.587 203.662 187.242 204.25C186.906 204.829 186.434 205.281 185.828 205.608C185.221 205.935 184.535 206.098 183.77 206.098ZM183.77 204.6C184.414 204.6 184.946 204.385 185.366 203.956C185.786 203.527 185.996 202.962 185.996 202.262C185.996 201.562 185.786 200.997 185.366 200.568C184.946 200.139 184.414 199.924 183.77 199.924C183.126 199.924 182.594 200.139 182.174 200.568C181.763 200.997 181.558 201.562 181.558 202.262C181.558 202.962 181.763 203.527 182.174 203.956C182.594 204.385 183.126 204.6 183.77 204.6ZM191.099 199.616C191.603 198.832 192.49 198.44 193.759 198.44V200.106C193.61 200.078 193.474 200.064 193.353 200.064C192.672 200.064 192.14 200.265 191.757 200.666C191.374 201.058 191.183 201.627 191.183 202.374V206H189.433V198.524H191.099V199.616ZM197.581 206.098C196.974 206.098 196.382 206.019 195.803 205.86C195.224 205.701 194.762 205.501 194.417 205.258L195.089 203.928C195.425 204.152 195.826 204.334 196.293 204.474C196.769 204.605 197.236 204.67 197.693 204.67C198.738 204.67 199.261 204.395 199.261 203.844C199.261 203.583 199.126 203.401 198.855 203.298C198.594 203.195 198.169 203.097 197.581 203.004C196.965 202.911 196.461 202.803 196.069 202.682C195.686 202.561 195.35 202.351 195.061 202.052C194.781 201.744 194.641 201.319 194.641 200.778C194.641 200.069 194.935 199.504 195.523 199.084C196.12 198.655 196.923 198.44 197.931 198.44C198.444 198.44 198.958 198.501 199.471 198.622C199.984 198.734 200.404 198.888 200.731 199.084L200.059 200.414C199.424 200.041 198.71 199.854 197.917 199.854C197.404 199.854 197.012 199.933 196.741 200.092C196.48 200.241 196.349 200.442 196.349 200.694C196.349 200.974 196.489 201.175 196.769 201.296C197.058 201.408 197.502 201.515 198.099 201.618C198.696 201.711 199.186 201.819 199.569 201.94C199.952 202.061 200.278 202.267 200.549 202.556C200.829 202.845 200.969 203.256 200.969 203.788C200.969 204.488 200.666 205.048 200.059 205.468C199.452 205.888 198.626 206.098 197.581 206.098ZM203.036 200.764C202.719 200.764 202.448 200.657 202.224 200.442C202 200.218 201.888 199.938 201.888 199.602C201.888 199.257 201.995 198.977 202.21 198.762C202.434 198.547 202.709 198.44 203.036 198.44C203.363 198.44 203.633 198.547 203.848 198.762C204.072 198.977 204.184 199.257 204.184 199.602C204.184 199.938 204.072 200.218 203.848 200.442C203.624 200.657 203.353 200.764 203.036 200.764ZM203.036 206.098C202.719 206.098 202.448 205.991 202.224 205.776C202 205.552 201.888 205.272 201.888 204.936C201.888 204.591 201.995 204.311 202.21 204.096C202.434 203.881 202.709 203.774 203.036 203.774C203.363 203.774 203.633 203.881 203.848 204.096C204.072 204.311 204.184 204.591 204.184 204.936C204.184 205.272 204.072 205.552 203.848 205.776C203.624 205.991 203.353 206.098 203.036 206.098Z" fill="#FFA14E"/>
<path d="M218.562 193.4V206H215.646V195.74H213.126V193.4H218.562ZM225.179 193.184C226.943 193.184 228.323 193.724 229.319 194.804C230.315 195.872 230.813 197.414 230.813 199.43C230.813 200.858 230.543 202.082 230.003 203.102C229.475 204.122 228.725 204.896 227.753 205.424C226.781 205.952 225.659 206.216 224.387 206.216C223.715 206.216 223.073 206.144 222.461 206C221.849 205.844 221.327 205.628 220.895 205.352L221.975 203.21C222.587 203.63 223.373 203.84 224.333 203.84C225.401 203.84 226.247 203.528 226.871 202.904C227.495 202.268 227.831 201.356 227.879 200.168C227.123 200.924 226.079 201.302 224.747 201.302C223.943 201.302 223.211 201.14 222.551 200.816C221.891 200.492 221.369 200.036 220.985 199.448C220.601 198.848 220.409 198.158 220.409 197.378C220.409 196.538 220.619 195.8 221.039 195.164C221.459 194.528 222.029 194.042 222.749 193.706C223.481 193.358 224.291 193.184 225.179 193.184ZM225.395 199.124C226.031 199.124 226.547 198.95 226.943 198.602C227.351 198.242 227.555 197.786 227.555 197.234C227.555 196.682 227.357 196.232 226.961 195.884C226.577 195.536 226.043 195.362 225.359 195.362C224.735 195.362 224.225 195.53 223.829 195.866C223.445 196.202 223.253 196.658 223.253 197.234C223.253 197.81 223.445 198.272 223.829 198.62C224.225 198.956 224.747 199.124 225.395 199.124Z" fill="#FFA14E"/>
<path d="M70.432 169.52C71.376 169.52 72.096 169.748 72.592 170.204C73.096 170.652 73.348 171.332 73.348 172.244V176H71.932V175.22C71.748 175.5 71.484 175.716 71.14 175.868C70.804 176.012 70.396 176.084 69.916 176.084C69.436 176.084 69.016 176.004 68.656 175.844C68.296 175.676 68.016 175.448 67.816 175.16C67.624 174.864 67.528 174.532 67.528 174.164C67.528 173.588 67.74 173.128 68.164 172.784C68.596 172.432 69.272 172.256 70.192 172.256H71.848V172.16C71.848 171.712 71.712 171.368 71.44 171.128C71.176 170.888 70.78 170.768 70.252 170.768C69.892 170.768 69.536 170.824 69.184 170.936C68.84 171.048 68.548 171.204 68.308 171.404L67.72 170.312C68.056 170.056 68.46 169.86 68.932 169.724C69.404 169.588 69.904 169.52 70.432 169.52ZM70.228 174.992C70.604 174.992 70.936 174.908 71.224 174.74C71.52 174.564 71.728 174.316 71.848 173.996V173.252H70.3C69.436 173.252 69.004 173.536 69.004 174.104C69.004 174.376 69.112 174.592 69.328 174.752C69.544 174.912 69.844 174.992 70.228 174.992Z" fill="#BDBDBD"/>
<path d="M139.064 176L137.42 173.78L135.764 176H134.108L136.604 172.748L134.216 169.592H135.884L137.456 171.692L139.028 169.592H140.648L138.248 172.724L140.756 176H139.064Z" fill="#BDBDBD"/>
<path d="M204.864 176.084C204.216 176.084 203.632 175.944 203.112 175.664C202.592 175.384 202.184 174.996 201.888 174.5C201.6 173.996 201.456 173.428 201.456 172.796C201.456 172.164 201.6 171.6 201.888 171.104C202.184 170.608 202.592 170.22 203.112 169.94C203.632 169.66 204.216 169.52 204.864 169.52C205.52 169.52 206.108 169.66 206.628 169.94C207.148 170.22 207.552 170.608 207.84 171.104C208.136 171.6 208.284 172.164 208.284 172.796C208.284 173.428 208.136 173.996 207.84 174.5C207.552 174.996 207.148 175.384 206.628 175.664C206.108 175.944 205.52 176.084 204.864 176.084ZM204.864 174.8C205.416 174.8 205.872 174.616 206.232 174.248C206.592 173.88 206.772 173.396 206.772 172.796C206.772 172.196 206.592 171.712 206.232 171.344C205.872 170.976 205.416 170.792 204.864 170.792C204.312 170.792 203.856 170.976 203.496 171.344C203.144 171.712 202.968 172.196 202.968 172.796C202.968 173.396 203.144 173.88 203.496 174.248C203.856 174.616 204.312 174.8 204.864 174.8Z" fill="#BDBDBD"/>
<path d="M273.62 169.52C274.428 169.52 275.076 169.756 275.564 170.228C276.052 170.7 276.296 171.4 276.296 172.328V176H274.796V172.52C274.796 171.96 274.664 171.54 274.4 171.26C274.136 170.972 273.76 170.828 273.272 170.828C272.72 170.828 272.284 170.996 271.964 171.332C271.644 171.66 271.484 172.136 271.484 172.76V176H269.984V169.592H271.412V170.42C271.66 170.124 271.972 169.9 272.348 169.748C272.724 169.596 273.148 169.52 273.62 169.52Z" fill="#BDBDBD"/>
<path d="M71.432 125.6V134H69.872V126.908H68.096V125.6H71.432Z" fill="#828282"/>
<path d="M138.156 99.852C139.34 99.852 140.216 100.084 140.784 100.548C141.352 101.004 141.636 101.628 141.636 102.42C141.636 102.924 141.512 103.38 141.264 103.788C141.016 104.196 140.644 104.52 140.148 104.76C139.652 105 139.04 105.12 138.312 105.12C137.712 105.12 137.132 105.036 136.572 104.868C136.012 104.692 135.54 104.452 135.156 104.148L135.816 102.936C136.128 103.192 136.5 103.396 136.932 103.548C137.372 103.692 137.824 103.764 138.288 103.764C138.84 103.764 139.272 103.652 139.584 103.428C139.904 103.196 140.064 102.88 140.064 102.48C140.064 102.048 139.892 101.724 139.548 101.508C139.212 101.284 138.632 101.172 137.808 101.172H135.78L136.212 96.6H141.144V97.908H137.532L137.352 99.852H138.156Z" fill="#828282"/>
<path d="M206.104 117.068C206.88 117.164 207.472 117.428 207.88 117.86C208.288 118.292 208.492 118.832 208.492 119.48C208.492 119.968 208.368 120.412 208.12 120.812C207.872 121.212 207.496 121.532 206.992 121.772C206.496 122.004 205.888 122.12 205.168 122.12C204.568 122.12 203.988 122.036 203.428 121.868C202.876 121.692 202.404 121.452 202.012 121.148L202.684 119.936C202.988 120.192 203.356 120.396 203.788 120.548C204.228 120.692 204.68 120.764 205.144 120.764C205.696 120.764 206.128 120.652 206.44 120.428C206.76 120.196 206.92 119.884 206.92 119.492C206.92 119.1 206.768 118.796 206.464 118.58C206.168 118.356 205.712 118.244 205.096 118.244H204.328V117.176L206.236 114.908H202.42V113.6H208.144V114.644L206.104 117.068Z" fill="#828282"/>
<path d="M270.432 82.6V91H268.872V83.908H267.096V82.6H270.432ZM275.602 91.12C274.93 91.12 274.33 90.952 273.802 90.616C273.274 90.272 272.858 89.776 272.554 89.128C272.25 88.472 272.098 87.696 272.098 86.8C272.098 85.904 272.25 85.132 272.554 84.484C272.858 83.828 273.274 83.332 273.802 82.996C274.33 82.652 274.93 82.48 275.602 82.48C276.274 82.48 276.874 82.652 277.402 82.996C277.938 83.332 278.358 83.828 278.662 84.484C278.966 85.132 279.118 85.904 279.118 86.8C279.118 87.696 278.966 88.472 278.662 89.128C278.358 89.776 277.938 90.272 277.402 90.616C276.874 90.952 276.274 91.12 275.602 91.12ZM275.602 89.764C276.202 89.764 276.674 89.516 277.018 89.02C277.37 88.524 277.546 87.784 277.546 86.8C277.546 85.816 277.37 85.076 277.018 84.58C276.674 84.084 276.202 83.836 275.602 83.836C275.01 83.836 274.538 84.084 274.186 84.58C273.842 85.076 273.67 85.816 273.67 86.8C273.67 87.784 273.842 88.524 274.186 89.02C274.538 89.516 275.01 89.764 275.602 89.764Z" fill="#828282"/>
<path d="M40 153C40 148.582 43.5817 145 48 145H93C97.4183 145 101 148.582 101 153V156H40V153Z" fill="#FFBB4F"/>
<path d="M175 141C175 136.582 178.582 133 183 133H228C232.418 133 236 136.582 236 141V156H175V141Z" fill="#FF7576"/>
<path d="M108 124C108 119.582 111.582 116 116 116H161C165.418 116 169 119.582 169 124V156H108V124Z" fill="#FFDA93"/>
<path d="M243 110C243 105.582 246.582 102 251 102H296C300.418 102 304 105.582 304 110V156H243V110Z" fill="#80E0E6"/>
</svg>
