<svg width="77" height="31" viewBox="0 0 77 31" fill="none" xmlns="http://www.w3.org/2000/svg">
<path d="M9.77516e-06 23.744V1.344H10.24C12.288 1.344 14.048 1.67467 15.52 2.336C17.0133 2.99733 18.1653 3.95733 18.976 5.216C19.7867 6.45333 20.192 7.92533 20.192 9.632C20.192 11.3173 19.7867 12.7787 18.976 14.016C18.1653 15.2533 17.0133 16.2133 15.52 16.896C14.048 17.5573 12.288 17.888 10.24 17.888H3.52001L6.33601 15.136V23.744H9.77516e-06ZM6.33601 15.808L3.52001 12.896H9.85601C11.1787 12.896 12.16 12.608 12.8 12.032C13.4613 11.456 13.792 10.656 13.792 9.632C13.792 8.58667 13.4613 7.776 12.8 7.2C12.16 6.624 11.1787 6.336 9.85601 6.336H3.52001L6.33601 3.424V15.808ZM32.149 23.744V20.512L31.733 19.712V13.76C31.733 12.8 31.4343 12.064 30.837 11.552C30.261 11.0187 29.333 10.752 28.053 10.752C27.221 10.752 26.3783 10.8907 25.525 11.168C24.6717 11.424 23.9463 11.7867 23.349 12.256L21.301 8.128C22.2823 7.488 23.4557 6.99733 24.821 6.656C26.2077 6.29333 27.5837 6.112 28.949 6.112C31.765 6.112 33.941 6.76267 35.477 8.064C37.0343 9.344 37.813 11.36 37.813 14.112V23.744H32.149ZM27.029 24.032C25.6423 24.032 24.469 23.7973 23.509 23.328C22.549 22.8587 21.813 22.2187 21.301 21.408C20.8103 20.5973 20.565 19.6907 20.565 18.688C20.565 17.6213 20.8317 16.704 21.365 15.936C21.9197 15.1467 22.7623 14.5493 23.893 14.144C25.0237 13.7173 26.485 13.504 28.277 13.504H32.373V16.672H29.109C28.1277 16.672 27.4343 16.832 27.029 17.152C26.645 17.472 26.453 17.8987 26.453 18.432C26.453 18.9653 26.6557 19.392 27.061 19.712C27.4663 20.032 28.021 20.192 28.725 20.192C29.3863 20.192 29.9837 20.032 30.517 19.712C31.0717 19.3707 31.477 18.8587 31.733 18.176L32.565 20.416C32.245 21.6107 31.6157 22.5173 30.677 23.136C29.7597 23.7333 28.5437 24.032 27.029 24.032ZM43.0343 30.24C42.1169 30.24 41.1889 30.0907 40.2503 29.792C39.3329 29.5147 38.5863 29.1413 38.0103 28.672L40.1223 24.416C40.4849 24.736 40.9009 24.9813 41.3703 25.152C41.8609 25.344 42.3409 25.44 42.8103 25.44C43.4716 25.44 43.9943 25.2907 44.3783 24.992C44.7623 24.6933 45.0929 24.224 45.3703 23.584L46.1703 21.568L46.6503 20.96L52.5383 6.4H58.3303L50.8423 24.448C50.2449 25.9413 49.5516 27.104 48.7623 27.936C47.9943 28.7893 47.1303 29.3867 46.1703 29.728C45.2316 30.0693 44.1863 30.24 43.0343 30.24ZM45.4023 24.48L37.7543 6.4H43.9943L49.6263 20.416L45.4023 24.48ZM65.7053 24.032C64.1266 24.032 62.6866 23.6693 61.3853 22.944C60.1053 22.1973 59.0813 21.1627 58.3133 19.84C57.5453 18.496 57.1613 16.896 57.1613 15.04C57.1613 13.2053 57.5453 11.6267 58.3133 10.304C59.0813 8.96 60.1053 7.92533 61.3853 7.2C62.6866 6.47467 64.1266 6.112 65.7053 6.112C67.1986 6.112 68.4573 6.432 69.4813 7.072C70.5266 7.712 71.3159 8.69333 71.8493 10.016C72.3826 11.3387 72.6493 13.0133 72.6493 15.04C72.6493 17.1093 72.3933 18.8053 71.8813 20.128C71.3693 21.4507 70.6013 22.432 69.5773 23.072C68.5533 23.712 67.2626 24.032 65.7053 24.032ZM66.9853 19.2C67.6679 19.2 68.2759 19.04 68.8093 18.72C69.3639 18.4 69.8013 17.9307 70.1213 17.312C70.4413 16.672 70.6013 15.9147 70.6013 15.04C70.6013 14.1653 70.4413 13.4293 70.1213 12.832C69.8013 12.2133 69.3639 11.744 68.8093 11.424C68.2759 11.104 67.6679 10.944 66.9853 10.944C66.2813 10.944 65.6519 11.104 65.0973 11.424C64.5639 11.744 64.1373 12.2133 63.8173 12.832C63.4973 13.4293 63.3373 14.1653 63.3373 15.04C63.3373 15.9147 63.4973 16.672 63.8173 17.312C64.1373 17.9307 64.5639 18.4 65.0973 18.72C65.6519 19.04 66.2813 19.2 66.9853 19.2ZM70.7933 23.744V20.768L70.8253 15.04L70.5053 9.312V0H76.5853V23.744H70.7933Z" fill="#484A4F"/>
</svg>
