<svg width="57" height="56" viewBox="0 0 57 56" fill="none" xmlns="http://www.w3.org/2000/svg">
<rect opacity="0.15" width="56.0507" height="56" rx="10" fill="#E0E0E0"/>
<path d="M28.0253 41.3333C29.4933 41.3333 30.6944 40.1333 30.6944 38.6667H25.3562C25.3562 39.3739 25.6375 40.0522 26.138 40.5523C26.6386 41.0524 27.3174 41.3333 28.0253 41.3333ZM36.0326 33.3333V26.6667C36.0326 22.5733 33.8439 19.1467 30.0271 18.24V17.3333C30.0271 16.2267 29.133 15.3333 28.0253 15.3333C26.9177 15.3333 26.0235 16.2267 26.0235 17.3333V18.24C22.1934 19.1467 20.0181 22.56 20.0181 26.6667V33.3333L17.349 36V37.3333H38.7017V36L36.0326 33.3333Z" fill="#828282"/>
</svg>
