<svg width="33" height="32" viewBox="0 0 33 32" fill="none" xmlns="http://www.w3.org/2000/svg">
<path d="M16.0147 29.3333C17.4827 29.3333 18.6838 28.1333 18.6838 26.6667H13.3456C13.3456 27.3739 13.6268 28.0522 14.1274 28.5523C14.6279 29.0524 15.3068 29.3333 16.0147 29.3333ZM24.022 21.3333V14.6667C24.022 10.5733 21.8333 7.14667 18.0165 6.24V5.33333C18.0165 4.22667 17.1224 3.33333 16.0147 3.33333C14.907 3.33333 14.0129 4.22667 14.0129 5.33333V6.24C10.1828 7.14667 8.00746 10.56 8.00746 14.6667V21.3333L5.33838 24V25.3333H26.691V24L24.022 21.3333Z" fill="#828282"/>
</svg>
